<svg width="21" height="21" fill="none" xmlns="http://www.w3.org/2000/svg"><g clip-path="url(#clip0)" fill="#fff"><path d="M10.5 21c-.618 0-1.171-.238-1.48-.636l-.01-.013-7.018-9.531C.317 8.545.365 5.844 2.12 3.596 3.838 1.396 6.89.053 10.282.002c.145-.003.29-.003.436 0 3.393.05 6.444 1.395 8.162 3.594 1.755 2.248 1.803 4.949.128 7.224l-7.018 9.53a.38.38 0 01-.01.013c-.308.398-.861.636-1.479.636zm0-19.688c-.06 0-.121 0-.182.002-2.77.042-5.262 1.14-6.667 2.94-1.443 1.848-1.483 4.067-.107 5.937l6.956 9.445 6.956-9.445c1.376-1.87 1.336-4.089-.107-5.937-1.405-1.8-3.898-2.898-6.667-2.94l-.182-.002z"/><path d="M10.5 9.516c-2.195 0-3.98-1.325-3.98-2.953 0-1.629 1.785-2.954 3.98-2.954 2.194 0 3.98 1.325 3.98 2.954 0 1.628-1.785 2.953-3.98 2.953zm0-4.594c-1.22 0-2.212.736-2.212 1.64 0 .905.992 1.641 2.212 1.641 1.22 0 2.211-.736 2.211-1.64 0-.905-.992-1.641-2.211-1.641z"/></g><defs><clipPath id="clip0"><path fill="#fff" d="M0 0h21v21H0z"/></clipPath></defs></svg>