<svg width="20" height="20" fill="none" xmlns="http://www.w3.org/2000/svg"><g clip-path="url(#clip0)"><path d="M16.75 17.698v1.969a.333.333 0 11-.667 0v-1.97a2.772 2.772 0 00-2.774-2.772c-.725 0-1.383-.37-1.76-.989a.333.333 0 01.569-.347c.255.419.7.669 1.191.669a3.438 3.438 0 013.44 3.44zm-5.817-3.341a.333.333 0 01-.255.397 3.19 3.19 0 01-2.48-.485c-.702.753-1.631.655-1.507.655a2.772 2.772 0 00-2.773 2.774v1.969a.333.333 0 11-.667 0v-1.97a3.438 3.438 0 013.44-3.44c.77 0 1.393-.619 1.393-1.388v-.088a4.465 4.465 0 01-2.538-3.86A1.36 1.36 0 014.5 7.604V5.876c-.018-.845.107-2.964 1.652-4.452C8.06-.415 11.118-.298 13.367.784a.335.335 0 01.07.556 4.498 4.498 0 012.753 1.98c.032.052.092.133.077.262a.337.337 0 01-.096.212c-.406.412-.63.957-.63 1.537v2.273a.333.333 0 01-.667 0V5.331c0-.668.229-1.303.648-1.812a3.85 3.85 0 00-2.764-1.622l-.585-.063c-.343-.037-.41-.509-.092-.64l.267-.11c-3.47-1.209-7.18.135-7.18 4.789v1.731c0 .265.152.494.374.61v-2.16A2.336 2.336 0 017.875 3.72h4.25a2.336 2.336 0 012.333 2.333v2.729c0 2.899-2.833 5.1-5.715 4.252a2.038 2.038 0 01-.174.68c.56.385 1.268.54 1.967.388a.334.334 0 01.397.255zM10 12.547c2.09 0 3.791-1.7 3.791-3.79V6.053c0-.919-.747-1.666-1.666-1.666h-4.25c-.919 0-1.666.747-1.666 1.666v2.704c0 2.09 1.7 3.79 3.791 3.79zm3.375 5.745h-1a.333.333 0 100 .666h1a.333.333 0 000-.666z" fill="#fff"/></g><defs><clipPath id="clip0"><path fill="#fff" d="M0 0h20v20H0z"/></clipPath></defs></svg>