<svg width="20" height="20" fill="none" xmlns="http://www.w3.org/2000/svg"><g clip-path="url(#clip0)"><path d="M15.274 9.822h1.395a.573.573 0 00.572-.572V7.855a.573.573 0 00-.572-.572h-1.395a.573.573 0 00-.572.572V9.25c0 .316.256.572.572.572zm.014-1.953h1.367v1.367h-1.367V7.87zm-.014 5.664h1.395a.573.573 0 00.572-.572v-1.395a.573.573 0 00-.572-.572h-1.395a.573.573 0 00-.572.572v1.395c0 .316.256.572.572.572zm.014-1.953h1.367v1.367h-1.367V11.58zm-3.995-1.758h1.395a.573.573 0 00.572-.572V7.855a.573.573 0 00-.572-.572h-1.395a.573.573 0 00-.572.572V9.25c0 .316.256.572.572.572zm.014-1.953h1.367v1.367h-1.367V7.87zm-6.581 6.662H3.33a.573.573 0 00-.572.572v1.395c0 .316.256.572.572.572h1.395a.573.573 0 00.572-.572v-1.395a.573.573 0 00-.572-.572zm-.014 1.953H3.344v-1.367h1.368v1.367zm.014-9.2H3.33a.573.573 0 00-.572.571V9.25c0 .316.256.572.572.572h1.395a.573.573 0 00.572-.572V7.855a.573.573 0 00-.572-.572zm-.014 1.952H3.344V7.87h1.368v1.367zm6.58 4.21h1.396a.573.573 0 00.572-.572V11.48a.573.573 0 00-.572-.572h-1.395a.573.573 0 00-.572.572v1.395c0 .316.256.572.572.572zm.015-1.953h1.367v1.367h-1.367v-1.367zM17.532 1.34h-1.253V.89c0-.491-.4-.891-.89-.891h-.135c-.491 0-.891.4-.891.89v.449H5.636V.89c0-.491-.4-.891-.89-.891H4.61c-.491 0-.89.4-.89.89v.449H2.467A1.47 1.47 0 001 2.806v15.73C1 19.342 1.658 20 2.466 20h15.068c.808 0 1.465-.657 1.465-1.465V2.805c0-.808-.658-1.466-1.467-1.466zM14.949.89c0-.168.137-.305.305-.305h.134c.169 0 .305.137.305.305v.448h-.744V.89zM4.306.89c0-.168.137-.305.305-.305h.135c.168 0 .305.137.305.305v.448h-.745V.89zm14.107 17.644a.88.88 0 01-.88.88H2.467a.88.88 0 01-.88-.88v-.002c.246.185.551.295.882.295h11.878c.392 0 .76-.152 1.037-.43l3.03-3.03v3.167zm-3.329-.666c.023-.095.036-.194.036-.296v-1.955c0-.369.3-.67.668-.67h1.956c.102 0 .2-.012.295-.034l-2.955 2.955zm3.329-12.343H5.929a.293.293 0 000 .585h12.484v7.583a.67.67 0 01-.67.669h-1.955c-.691 0-1.254.563-1.254 1.255v1.955a.67.67 0 01-.67.67H2.469a.882.882 0 01-.881-.882V6.111h3.17a.293.293 0 000-.585h-3.17v-2.72c0-.486.395-.881.88-.881H3.72v.861c0 .491.4.891.891.891a.293.293 0 000-.586.305.305 0 01-.305-.305v-.861h10.057v.861c0 .491.4.891.89.891a.293.293 0 100-.586.305.305 0 01-.304-.305v-.861h2.583a.88.88 0 01.88.88v2.72zM4.726 10.907H3.33a.573.573 0 00-.572.572v1.395c0 .316.256.572.572.572h1.395a.573.573 0 00.572-.572V11.48a.573.573 0 00-.572-.572zm-.014 1.953H3.344v-1.367h1.368v1.367zm2.6-3.038h1.395a.573.573 0 00.572-.572V7.855a.573.573 0 00-.572-.572H7.312a.573.573 0 00-.572.572V9.25c0 .316.256.572.572.572zm.014-1.953h1.367v1.367H7.326V7.87zm3.98 8.615a.293.293 0 00-.585.014c0 .316.256.572.572.572h1.395a.573.573 0 00.572-.572v-1.395a.573.573 0 00-.572-.572h-1.395a.573.573 0 00-.572.572v.403a.293.293 0 00.586 0v-.389h1.367v1.367h-1.368zm-3.994-3.038h1.395a.573.573 0 00.572-.572V11.48a.573.573 0 00-.572-.572H7.312a.573.573 0 00-.572.572v1.395c0 .316.256.572.572.572zm.014-1.953h1.367v1.367H7.326v-1.367zm-.014 5.577h1.395a.573.573 0 00.572-.572v-1.395a.573.573 0 00-.572-.572H7.312a.573.573 0 00-.572.572v1.395c0 .316.256.572.572.572zm.014-1.953h1.367v1.367H7.326v-1.367z" fill="#fff"/></g><defs><clipPath id="clip0"><path fill="#fff" d="M0 0h20v20H0z"/></clipPath></defs></svg>