<svg width="31" height="31" fill="none" xmlns="http://www.w3.org/2000/svg"><path d="M29.184 20.197V7.727l1.226-.458a.908.908 0 00.003-1.7L15.82.058a.906.906 0 00-.642 0L.587 5.569a.908.908 0 00.004 1.7L5.51 9.106v6.621c0 .371.226.705.57.843a25.247 25.247 0 009.42 1.814c3.24 0 6.41-.61 9.42-1.814a.908.908 0 00.57-.843V9.106l1.877-.701v11.792a2.729 2.729 0 00-1.816 2.569c0 .697.264 1.334.696 1.816a2.714 2.714 0 00-.696 1.816v3.694c0 .501.406.908.908.908h3.633a.908.908 0 00.908-.908v-3.694c0-.697-.264-1.334-.696-1.816.433-.482.696-1.12.696-1.816a2.73 2.73 0 00-1.816-2.569zM15.5 1.88l12.008 4.534L15.5 10.898 3.492 6.413 15.5 1.88zm8.174 13.225a23.434 23.434 0 01-16.348 0v-5.32l7.856 2.934a.91.91 0 00.636 0l7.856-2.934v5.32zm4.601 6.753a.91.91 0 010 1.817.91.91 0 010-1.817zm.909 7.327h-1.817v-2.786a.91.91 0 011.817 0v2.786z" fill="#fff"/><path d="M16.408 6.42a.908.908 0 11-1.816 0 .908.908 0 011.816 0z" fill="#fff"/></svg>