<svg width="156" height="156" fill="none" xmlns="http://www.w3.org/2000/svg"><path d="M78 0C35.158 0 0 35.158 0 78c0 36.559 25.653 69.769 59.719 78v-25.806c-3.376.74-6.482.761-9.918-.252-4.61-1.36-8.355-4.431-11.135-9.113-1.773-2.99-4.913-6.232-8.19-5.994l-.803-9.105c7.085-.607 13.214 4.317 16.853 10.43 1.616 2.718 3.476 4.312 5.864 5.016 2.307.68 4.785.354 7.673-.666.724-5.781 3.373-7.945 5.373-10.992v-.004c-20.316-3.03-28.413-13.809-31.626-22.316-4.259-11.296-1.974-25.408 5.557-34.326.146-.174.41-.629.308-.947-3.453-10.43.754-19.057.91-19.972 3.984 1.178 4.631-1.186 17.308 6.516l2.191 1.316c.917.547.629.235 1.545.166a66.196 66.196 0 0116.37-2.303c5.539.071 11.083.865 16.595 2.361l.709.072c-.062-.01.193-.046.62-.3 15.835-9.592 15.267-6.457 19.513-7.838.154.917 4.305 9.685.889 19.982-.46 1.42 13.729 14.412 5.864 35.27-3.213 8.51-11.309 19.289-31.625 22.319v.004c2.604 3.97 5.733 6.081 5.716 14.27V156c34.067-8.231 59.72-41.441 59.72-78 0-42.842-35.158-78-78-78z" fill="#E1FFFF"/></svg>