<svg width="31" height="31" fill="none" xmlns="http://www.w3.org/2000/svg"><path d="M15.687 31c4.485 0 2.886-4.543 3.232-5.849-.005-.975-.01-1.913.01-2.484.284.128.955.672 2.34 2.825C23.405 28.944 23.951 31 25.678 31h3.18c1.007 0 1.531-.668 1.793-1.228.253-.541.501-1.492.23-2.971-.709-3.563-4.845-9.716-5.102-10.365.039-.12.1-.279.133-.361h-.003c.817-1.726 3.932-9.195 4.39-12.183a.058.058 0 00.003-.017c.248-1.364.021-2.249-.214-2.749C29.735.378 29.172 0 28.411 0h-3.179c-1.064 0-1.871.858-2.28 2.422-.683 2.78-2.602 8.496-4.04 10.52-.045-2.867-.015-5.056.008-6.682.047-3.172.196-6.26-1.861-6.26h-4.996c-1.29 0-2.523 2.253-1.187 4.927 1.167 2.344.42 3.65.671 10.151-.981-1.684-2.728-6.233-3.962-12.046-.347-1.573-.871-3.03-2.347-3.03h-3.18C.77.002 0 1.126 0 3.01 0 7.237 5.85 31 15.687 31zM5.237 3.102c.28 0 .31 0 .517.945C7.02 10.005 9.855 18.82 11.927 18.82c1.557 0 1.557-2.552 1.557-3.513l-.002-7.651c-.085-2.532-.661-3.792-1.04-4.557l4.532.008c.002.035-.026 8.463.012 10.505 0 2.9 1.44 4.561 3.686.924 2.37-4.28 4.009-10.679 4.075-10.939.097-.372.18-.498.485-.498h3.192l-.002.019c-.291 2.17-3.16 9.085-4.12 11.232-.015.033-.03.068-.043.103-.423 1.104-.766 2.323.058 4.038.076.145.27.484.555.955.884 1.46 3.914 6.448 4.182 8.432-.178.046-.372.013-3.375.023-.639 0-1.139-1.53-3.047-4.609-1.715-2.67-2.828-3.76-3.842-3.76-1.969 0-1.825 2.555-1.807 5.647.006 3.352-.007 2.292.007 2.503-.115.072-.444.217-1.303.217C7.492 27.9 2.154 7.087 1.95 3.108c.071-.01 1.049-.004 3.289-.006z" fill="#000"/></svg>