<svg width="31" height="31" fill="none" xmlns="http://www.w3.org/2000/svg"><g clip-path="url(#clip0)"><path fill="#5F5F5F" d="M0 0h31v31H0z"/><path d="M19.376 8.396a1.292 1.292 0 01-1.292-1.292V5.167h-5.167v1.937a1.292 1.292 0 01-2.583 0V5.167a2.586 2.586 0 012.583-2.584h5.167a2.586 2.586 0 012.583 2.584v1.937c0 .713-.578 1.292-1.291 1.292zm-2.959 11.47a2.829 2.829 0 01-1.912-.026L0 15.01v9.855a3.55 3.55 0 003.552 3.552h23.896A3.55 3.55 0 0031 24.865v-9.856l-14.583 4.857z" fill="#000"/><path d="M31 10.01v2.958l-15.19 5.064a.87.87 0 01-.31.051.87.87 0 01-.31-.051L0 12.968V10.01a3.55 3.55 0 013.552-3.552h23.896A3.55 3.55 0 0131 10.01z" fill="#000"/></g><defs><clipPath id="clip0"><path fill="#fff" d="M0 0h31v31H0z"/></clipPath></defs></svg>