<svg width="156" height="156" fill="none" xmlns="http://www.w3.org/2000/svg"><path d="M151.907 68.13L87.869 4.094A13.88 13.88 0 0078 0a13.88 13.88 0 00-9.87 4.093L55.467 16.758l15.672 15.671c5.206-3.06 11.989-2.397 16.453 2.067 4.464 4.464 5.114 11.247 2.053 16.44l15.407 15.406c5.206-3.06 11.989-2.397 16.453 2.067 5.299 5.299 5.299 13.883 0 19.182-5.299 5.299-13.883 5.299-19.182 0-4.464-4.464-5.127-11.247-2.067-16.453L84.849 55.73a13.06 13.06 0 01-3.458 1.431v41.663c5.842 1.51 10.174 6.769 10.174 13.088 0 7.498-6.067 13.565-13.565 13.565-7.498 0-13.565-6.067-13.565-13.565 0-6.319 4.332-11.578 10.174-13.088V57.162c-2.266-.583-4.425-1.709-6.2-3.484-4.464-4.464-5.114-11.247-2.053-16.44L50.67 21.553 4.093 68.131c-5.457 5.444-5.457 14.294 0 19.738l64.038 64.038A13.879 13.879 0 0078 156c3.577 0 7.153-1.364 9.87-4.093l64.037-64.038c5.457-5.444 5.457-14.294 0-19.738z" fill="#FFC107" fill-opacity=".2"/></svg>