<svg width="156" height="156" fill="none" xmlns="http://www.w3.org/2000/svg"><path d="M108.002 4.875c-.197.007-.352.064-.457.162l-18.11 21.509-3.694 12.702a234.987 234.987 0 00-7.76-.115c-18.822 0-34.106 1.995-34.106 4.466 0 5.898 68.202 5.898 68.202 0 0-1.828-8.164-3.373-19.938-4.104l2.924-10.454L112 8.665l.029-.029c.381-.395-.362-1.58-1.571-2.618-.907-.784-1.862-1.167-2.457-1.143zM84.351 44.246l-.067.2c-.028.024-.028.057-.028.086 0 .367 1.475.667 3.275.667 1.8 0 3.285-.3 3.285-.667l.057-.229c.474.172.733.367.733.59 0 .591-1.828 1.072-4.104 1.048-2.213 0-4.046-.447-4.046-1.038 0-.252.364-.485.895-.657zm27.346 1.676c-9.024 4.81-58.317 4.844-67.375.067l4.01 35.258c1.74-5.62 6.14-13.209 11.806-15.51 1.856-.76 3.744-.758 5.513.256 1.535.843 2.835 2.612 2.98 3.314.357 1.828-.588 2.552-1.324 2.552-.888 0-1.566-1.288-2.009-2.047-1.209-2.052-3.04-2.14-4.989-.79-2.037 1.404-3.808 3.765-5.046 5.817-1.507 2.47-2.776 5.196-3.542 7.922-.443 1.576-.85 4.096-.172 5.589.298.619.736 1.01 1.448 1.01 1.478 0 3.623-1.853 4.656-2.838 1.325-1.262 3.037-3.233 3.684-4.494l1.543-4.352c.766-1.911 2.913-1.576 2.913 0 0 2.866-1.085 3.823-2.942 9.75-1.711 5.48-2.247 7.256-2.247 7.256-.204.785-1.004 2.104-1.856 2.104-.357 0-.617-.12-.762-.343-.298-.395-.267-1.478-.238-1.761.06-.898 1.854-6.242 2.152-7.084a35.816 35.816 0 01-1.886 1.856c-1.594 1.433-4.156 3.314-6.34 3.314-1.005 0-1.648-.257-2.267-.676l2.238 22.366c.59 1.404 11.568 4.808 26.022 4.808 14.484 0 25.451-3.428 26.012-4.808l3.219-26.575c-1.683 1.462-3.626 3.264-5.78 4.161-1.595.648-5.132 1.062-5.132-1.609 0-1.462 2.688-4.154 4.247-6.037.414-.478 1.38-1.656 1.38-2.275 0-.814-1.764-.626-3.447.695-.944.76-1.835 1.778-2.57 2.733-1.267 1.687-1.943 3.142-2.504 4.35-1.829 3.988-1.207 2.417-2.686 6.18-1.478 3.74-1.235 3.314-1.532 3.933-.265.535-.65.988-1.181 1.266-.562.283-1.326.25-1.8-.086-.264-.171-.39-.535-.39-1.038 0-.252.036-.509.095-.761.443-1.716 2.302-5.082 4.428-9.636.473-1.038.292-.73.228-.647-1.828 1.687-3.218 2.504-4.246 2.951-1.712.731-3.838.731-4.276-1.152-.028-.112-.028-.23-.057-.343-3.48 2.583-7.167 3.288-5.894-2.275-1.354 2.306-3.72 4.19-6.617 4.19-1.21 0-2.095-.391-2.533-1.43-.678-1.544.381-4.19 1.352-6.693a50.95 50.95 0 012.105-4.55c.473-.956 1.233-1.52 2.237-1.267.176.06.331.116.476.2.767.507.472 1.259.086 2.018-1.121 2.107-2.095 3.652-2.742 5.846-.264.926-.595 2.533.438 2.533.707 0 1.385-.228 2.037-.676 1.355-.954 2.447-2.385 3.276-3.79.59-1.009 1.302-2.33 1.656-3.456a9.44 9.44 0 01.534-1.352c.326-.702.761-1.428 1.533-1.428.385 0 .704.14.942.419.502.619.393 1.254.124 1.933-.59 1.576-1.385 2.982-2.038 4.694-.385.985-.8 2.247-.8 3.285 0 .954 1.093.728 2.01.333.707-.307 1.414-.778 2.009-1.257.357-1.376.262-1.071 7.788-19.167.386-.925 1.093-1.323 1.8-1.323.357 0 .645.119.943.314.502.367.509 1.143.304 1.733-.204.536-.183.369-1.333 2.952-1.535 3.397-2.535 5.848-3.894 8.969-.562 1.293-2.269 5.31-2.561 6.265-.176.619-.388 1.628.295 1.628 1.595 0 5.696-3.682 6.817-4.78.06-.083.15-.111.267-.17.176-.537.35-1.036.495-1.543.414-1.067.8-2.312 1.57-3.18.234-.284.498-.448.791-.448.824 0 1.238.333 1.238 1.124 0 .307-.202 1.435-.324 1.742.414-.419.85-.838 1.324-1.257 4.427-3.904 7.579-1.911 7.579.057 0 2.076-2.623 4.966-4.066 6.57-.474.536-1.447 1.516-1.476 1.8 0 .366.262.514.648.514.59 0 1.887-.988 2.361-1.324 1.478-1.097 3.475-2.78 4.894-3.96l4.371-38.439zm-58.415 71.23l4.4 7.141 1.713 22.309c0 2.502 8.348 4.523 18.614 4.523 10.267 0 18.615-2.021 18.615-4.523l1.362-22.537 4.151-6.913c-11.685 4.694-36.696 4.861-48.855 0z" fill="#FFC107" fill-opacity=".2"/></svg>