<svg width="156" height="156" fill="none" xmlns="http://www.w3.org/2000/svg"><path d="M88.844.028a3.6 3.6 0 00-.975.292c-2.681 1.329-5.728 5.277-6.313 6.058-.036.048-.073.097-.097.146-3.01 4.51-4.62 9.786-4.68 15.283-.037 4.12.767 8.202 2.4 12.139 3.803 9.128 11.7 16.684 21.097 20.219.317.11.622.22 1.17.414.049.024.512.17.585.183l.341.122c.488.158.988.317 1.475.414a43.4 43.4 0 007.154.853c.39 0 .78.012 1.17.012 17.099 0 23.729-12.065 25.935-16.087.22-.39.378-.707.524-.902 0-.012 0-.012.012-.024a3.13 3.13 0 00-.828-4.34 3.12 3.12 0 00-4.327.83h-.012c-4.558 6.715-12.358 8.75-23.169 6.07-.804-.196-1.681-.5-2.461-.793a29.847 29.847 0 01-2.999-1.255 31.813 31.813 0 01-5.277-3.303C90.063 28.985 86.346 13.64 91.903 4.78A3.12 3.12 0 0088.844.028zM61.203 6.243a3.054 3.054 0 00-2.01.707c-4.718 3.84-9.544 10.128-9.75 10.384a.825.825 0 01-.086.134c-8.532 12.42-9.177 30.091-1.633 45.02a56.184 56.184 0 003.948 6.692l.427.61c1.207 1.766 2.56 3.765 4.29 5.325.597.683 1.243 1.34 1.877 1.974l.305.317.256.256a71.181 71.181 0 001.986 1.865h.012c.049.073.122.122.183.183a54.95 54.95 0 002.584 2.145l.28.207a52.048 52.048 0 002.462 1.852l.256.183c.292.195.585.378.877.585l.293.195.341.22c.622.414 1.231.792 2.096 1.291.561.342 1.158.683 1.548.878.17.097.354.195.78.426l.95.5c.05.025.269.122.318.146.621.317 1.267.622 1.913.915l.987.438c.646.28 1.304.549 2.109.853l.365.134c.025.025.33.135.354.147.585.207 1.182.414 1.78.61l1.364.45c.683.232 1.475.5 2.34.646 4.254.707 8.385 1.072 12.297 1.072.463 0 .927-.012 1.378-.012 34.441-.755 43.399-30.018 43.485-30.31a3.133 3.133 0 00-1.658-3.705 3.123 3.123 0 00-3.912 1.072c-8.726 12.749-25.228 18.135-42.035 13.7a36.122 36.122 0 01-2.474-.72 8.319 8.319 0 01-.548-.195 28.342 28.342 0 01-1.694-.585l-.866-.329c-.5-.195-.999-.39-1.608-.658l-.403-.183c-.743-.317-1.462-.67-2.108-.987l-1.78-.926c-.402-.195-.755-.415-1.303-.744l-.305-.17-.305-.183c-.45-.268-.902-.549-1.316-.841l-.293-.183a4.303 4.303 0 01-.292-.207c-.366-.232-.72-.463-1.06-.683a57.297 57.297 0 01-2.365-1.779l-.341-.28c-8.044-6.423-13.991-15.003-16.782-24.205-2.596-8.446-.67-19.5 5.155-29.567a3.105 3.105 0 00-.682-3.936 3.072 3.072 0 00-1.987-.744zm-34.332 9.36c-.744 0-1.5.269-2.096.805-5.96 5.35-10.42 12.285-10.908 13.077C1.119 48.047 3.58 76.895 12.33 94.53c.17.365.354.719.536 1.072l.122.195c.159.354.341.72.402.792.098.232.244.488.305.561.146.305.293.573.56 1.036l1 1.718c.146.232.293.476.341.561.195.317.403.646.61.975l.487.78c.146.232.293.439.39.561.488.755.975 1.511 1.512 2.23a.494.494 0 00.073.085l.195.268c.438.634.89 1.244 1.291 1.743l1.78 2.255c.024.024.22.256.232.28l.255.293a51.04 51.04 0 001.682 1.95c.086.097.17.183.256.28.549.597 1.11 1.194 1.694 1.816l.56.536c.464.488.927.963 1.415 1.414 0 .012.231.232.231.232l.488.45a37.806 37.806 0 001.657 1.512 8.7 8.7 0 00.5.438c.573.512 1.145 1 1.73 1.475l2.986 2.365c.5.365 1.012.731 1.597 1.157.195.147.402.293.61.427.085.073.182.146.243.183l2.243 1.499a71.792 71.792 0 002.632 1.633l.536.305c.622.365 1.256.731 1.853 1.048.353.195.707.365 1.011.524.427.231.89.487 1.597.829.061.036.56.28.622.304.707.354 1.425.683 2.327 1.085 0 .012.293.146.293.146.829.354 1.633.695 2.693 1.121.171.074.342.134.378.147.756.292 1.548.585 2.194.816l.45.183c.866.293 1.72.573 2.816.914.183.061.378.122.402.122l.622.195c.755.232 1.511.475 2.328.634 5.801 1.06 11.468 1.608 16.83 1.608h.013c44.691 0 58.926-35.965 59.073-36.33a3.123 3.123 0 00-1.414-3.84 3.142 3.142 0 00-3.998.841c-11.468 15.101-33.101 20.707-57.866 15.015a32.768 32.768 0 01-1.804-.499l-1.17-.354a65.179 65.179 0 01-2.352-.78c-.012 0-.365-.134-.365-.134-.683-.231-1.365-.499-1.963-.731l-.682-.268a62.549 62.549 0 01-2.243-.951l-.426-.183a68.33 68.33 0 01-1.926-.914 13.297 13.297 0 00-.597-.28 45.146 45.146 0 01-1.438-.756l-2.547-1.365a8.863 8.863 0 00-.78-.463c-.768-.475-1.56-.95-2.34-1.45-.183-.11-.342-.232-.646-.439a48.229 48.229 0 01-1.828-1.231l-.305-.219c-.524-.366-1.036-.756-1.462-1.073-.269-.195-.537-.414-.976-.743-.39-.305-.78-.597-1.145-.89l-.683-.56c-.572-.464-1.109-.951-1.67-1.426a1.591 1.591 0 00-.219-.183c-.621-.573-1.255-1.146-2.01-1.865l-2.207-2.194a65.313 65.313 0 01-1.681-1.779 80.247 80.247 0 01-1.816-2.096l-1.317-1.609a8.31 8.31 0 00-.536-.707c-.45-.61-.902-1.206-1.353-1.84C23.08 68.266 19.912 33.36 29.37 20.576a3.12 3.12 0 00-2.498-4.973z" fill="#FFC107" fill-opacity=".2"/></svg>