<svg width="156" height="156" fill="none" xmlns="http://www.w3.org/2000/svg"><g clip-path="url(#clip0)"><path d="M15.873 44.608c-6.923 0-9.998 2.68-9.998 11.017 0 5.508.78 8.583.78 13.31 0 2.68-1.646 5.509-6.645 5.751v6.656c4.999.124 6.646 2.957 6.646 5.637 0 4.727-.781 7.555-.781 13.063 0 8.336 3.075 11.017 9.874 11.017h4.999v-5.904h-1.533c-3.195 0-4.218-1.285-4.218-5.503s.39-7.832.39-12.559c0-5.898-1.923-8.184-5.751-9.084v-.39c3.851-.9 5.751-3.194 5.751-9.093 0-4.608-.39-8.34-.39-12.559 0-4.218.904-5.38 4.218-5.38h3.437V87.35c0 7.827 2.675 12.94 10.502 12.94 2.438 0 4.36-.39 5.751-.905l-1.285-8.331c-.757.2-1.124.2-1.514.2-.9 0-2.047-.786-2.047-3.2V44.609H15.873zm119.38.029v5.903h1.542c3.461 0 4.218 1.147 4.218 5.39 0 3.974-.39 7.94-.39 12.548 0 5.9 1.923 8.194 5.751 9.094v.39c-3.851.9-5.751 3.194-5.751 9.093 0 4.608.39 8.331.39 12.55 0 4.36-.904 5.512-4.218 5.512v.124h-1.542v6.141h4.999c6.774 0 9.874-2.68 9.874-11.016 0-5.508-.781-8.34-.781-13.311 0-2.68 1.656-5.508 6.655-5.751v-6.656c-4.999-.17-6.655-3.004-6.655-5.684 0-4.999.781-7.94.781-13.301 0-8.336-3.076-11.026-9.874-11.026h-4.999zM54.806 59.995c-9.36 0-18.315 7.827-18.072 20.119 0 12.673 8.341 20.109 19.338 20.109 4.609 0 9.727-1.657 13.702-4.36l-3.856-6.78c-2.828 1.657-5.504 2.438-8.332 2.438-5.118 0-9.098-2.433-10.121-8.332h23.213c.124-.9.39-2.685.39-4.732.143-10.393-5.512-18.462-16.262-18.462zm34.449.124c-8.703 0-14.606 4.998-14.606 12.044 0 6.266 5.513 9.474 10.121 11.255 3.975 1.537 7.817 2.828 7.817 5.389 0 1.923-1.528 3.19-4.99 3.19-3.194 0-6.412-1.29-9.873-3.97l-4.999 7.435c3.852 3.195 9.722 5.39 14.597 5.39 10.235 0 15.758-5.39 15.758-12.436.019-7.04-5.494-9.992-10.493-11.654-3.975-1.537-7.55-2.428-7.55-4.99 0-1.922 1.533-3.075 4.36-3.075 2.828 0 5.385 1.143 8.189 3.19l5.123-6.77c-3.195-2.437-7.556-4.998-13.454-4.998zm31.125 0c-8.702 0-14.596 4.998-14.596 12.044 0 6.266 5.503 9.474 10.112 11.255 3.975 1.537 7.826 2.828 7.826 5.389 0 1.923-1.537 3.19-4.998 3.19-3.195 0-6.413-1.29-9.874-3.97l-5.113 7.435c3.851 3.195 9.721 5.39 14.596 5.39 10.236 0 15.758-5.39 15.758-12.436 0-7.045-5.494-9.992-10.492-11.654-3.852-1.537-7.437-2.428-7.437-4.99 0-1.922 1.543-3.075 4.371-3.075 2.828 0 5.384 1.143 8.188 3.19l5.113-6.77c-3.194-2.437-7.555-4.998-13.454-4.998zm-65.45 8.455c4.608 0 6.408 3.199 6.408 7.56H47.493c.781-5.118 3.852-7.56 7.437-7.56z" fill="#FFC107" fill-opacity=".2"/></g><defs><clipPath id="clip0"><path fill="#fff" d="M0 0h156v156H0z"/></clipPath></defs></svg>