<svg width="156" height="156" fill="none" xmlns="http://www.w3.org/2000/svg"><path d="M148.848 1.3c-.65-.65-1.3-1.3-2.6-1.3H9.748c-.65 0-1.95.65-2.6 1.3-.65.65-.65 1.3-.65 2.6l13 130c0 1.3 1.3 2.6 1.95 2.6l58.5 19.5h2.6l52-19.5c1.3-.65 1.95-1.3 1.95-2.6l13-130c0-.65 0-1.95-.65-2.6zm-70.85 116.35c0 .65-.65 1.95-1.3 2.6-.65.65-1.338.736-1.988.736l-.612-.086-22.75-6.5c-1.3-.65-1.95-1.3-2.6-2.6l-3.25-16.25c-.65-1.95.65-3.25 2.6-3.9 1.95-.65 3.25.65 3.9 2.6l2.6 14.3 16.9 4.55V39.65h-35.75c-1.95 0-3.25-1.3-3.25-3.25s1.3-3.25 3.25-3.25h39c1.95 0 3.25 1.3 3.25 3.25v81.25zm45.5-80.6l-3.25 13c-.65 1.95-1.975 2.913-3.9 2.6-2.029-.33-2.806-1.96-2.6-3.9.245-2.314 1.95-9.1 1.95-9.1h-25.35v32.5h22.75c.65 0 1.95.65 2.6 1.3.65.65.65 1.95.65 2.6l-6.5 35.75c0 1.3-1.3 1.95-1.95 2.6l-19.5 6.5c-.65 0-3.011.899-4.55-1.95-.65-1.95.65-3.25 1.95-3.9l17.55-5.85 5.2-29.9h-22.1c-1.95 0-3.25-1.3-3.25-3.25v-39c0-1.95 1.3-3.25 3.25-3.25h32.5c1.3 0 2.189.277 3.039.63 1.802.746 1.511 1.97 1.511 2.62z" fill="#FFC107" opacity=".2"/></svg>