<svg width="31" height="31" fill="none" xmlns="http://www.w3.org/2000/svg"><g clip-path="url(#clip0)"><path d="M25.918 15.502l4.89-6.247a.909.909 0 00-.716-1.468h-9.747V5.339a.908.908 0 00-.908-.908H5.96c.186-.404.285-.847.285-1.306C6.246.36 2.88-1.049.915.917c-1.65 1.65-.972 4.509 1.3 5.195v23.072H1.02a.908.908 0 100 1.816h4.207a.908.908 0 000-1.816H4.032V19.86h14.497v2.448c0 .502.406.908.908.908h10.655a.909.909 0 00.715-1.468l-4.89-6.247zM1.818 3.124a1.307 1.307 0 112.229.924c-.816.817-2.23.24-2.23-.924zm2.214 14.92V6.246h14.497v11.797H4.032zM20.345 21.4V9.603h7.883l-4.179 5.339a.908.908 0 000 1.12l4.179 5.338h-7.883z" fill="#FFC107"/></g><defs><clipPath id="clip0"><path fill="#fff" d="M0 0h31v31H0z"/></clipPath></defs></svg>