<svg width="31" height="31" fill="none" xmlns="http://www.w3.org/2000/svg"><g clip-path="url(#clip0)" fill="#fff"><path d="M15.498 9.817a3.1 3.1 0 100-6.2 3.1 3.1 0 000 6.2zm0-5.167a2.067 2.067 0 110 4.133 2.067 2.067 0 010-4.133z"/><path d="M4.856 31h2.007c.44 0 .833-.28.977-.697l3.533-10.246c.164.06.336.091.51.093h1.55v9.817c0 .57.463 1.033 1.033 1.033h2.067c.57 0 1.033-.463 1.033-1.033V20.15h1.55a1.53 1.53 0 00.51-.093l3.531 10.246c.144.417.537.697.977.697h2.009a1.033 1.033 0 00.977-1.37l-4.75-13.772c.536-.257.877-.797.879-1.391V7.75A1.55 1.55 0 0021.7 6.2h-1.034V1.55A1.55 1.55 0 0019.116 0h-7.233a1.55 1.55 0 00-1.55 1.55V6.2H9.299a1.55 1.55 0 00-1.55 1.55v6.717c.002.594.343 1.134.879 1.391L3.88 29.63A1.033 1.033 0 004.856 31zm11.677-1.033h-2.067V20.15h2.067v9.817zm.516-10.85h-5.166a.517.517 0 01-.517-.517v-2.583h8.267V18.6a.517.517 0 01-.517.517H17.05zm7.085 10.85l-3.663-10.63c.126-.225.193-.479.195-.737v-2.583h.665l4.812 13.95h-2.009zM11.883 1.033h7.233c.285 0 .517.232.517.517v.517h-1.034a.517.517 0 100 1.033h1.034v7.233h-1.034a.517.517 0 000 1.034h1.034v.516a.517.517 0 01-.517.517h-7.233a.517.517 0 01-.517-.517v-.516H12.4a.517.517 0 000-1.034h-1.034V3.1H12.4a.517.517 0 000-1.033h-1.034V1.55c0-.285.232-.517.517-.517zm-3.1 6.717c0-.285.231-.517.516-.517h1.034v4.65c0 .856.694 1.55 1.55 1.55h7.233a1.55 1.55 0 001.55-1.55v-4.65H21.7c.285 0 .516.232.516.517v6.717a.517.517 0 01-.517.516H9.3a.517.517 0 01-.516-.516V7.75zm.885 8.267h.665V18.6c.002.258.069.512.195.738L6.864 29.967H4.856l4.812-13.95z"/></g><defs><clipPath id="clip0"><path fill="#fff" d="M0 0h31v31H0z"/></clipPath></defs></svg>