<svg width="31" height="31" fill="none" xmlns="http://www.w3.org/2000/svg"><path d="M22.93 20.084l-1.214-.26-.004-.001L18.8 19.2c.02-.143.03-.287.03-.43v-1.353a6.179 6.179 0 002.854-5.204v-1.101h.665a.424.424 0 00.424-.424V9.235a.422.422 0 00-.424-.424h-.306a6.528 6.528 0 00-5.028-6.275v-.962a.422.422 0 00-.424-.424h-2.18a.424.424 0 00-.424.424v.962a6.528 6.528 0 00-5.029 6.275h-.305a.424.424 0 00-.424.424v1.453a.424.424 0 00.424.424h.665v1.101a6.18 6.18 0 002.853 5.204v1.352c0 .145.011.288.03.43l-2.911.624h-.003l-1.215.26a3.346 3.346 0 00-2.636 3.257v6.086a.424.424 0 00.423.424h19.283a.424.424 0 00.424-.424V23.34a3.346 3.346 0 00-2.636-3.256zM21.196 8.811h-2.002V6.328a.424.424 0 10-.847 0v2.483h-1.332V3.404a5.686 5.686 0 014.18 5.407zm-6.361-6.813h1.332v6.813h-1.332V1.998zm-.848 1.407V8.81h-1.332V6.328a.424.424 0 00-.848 0v2.483h-2a5.686 5.686 0 014.18-5.406zm-4.91 6.253h12.848v.606H9.076v-.606zm1.09 2.556v-1.102h10.67v1.101a5.336 5.336 0 01-10.671 0zm5.334 6.18c.854 0 1.7-.176 2.482-.52v.896a2.483 2.483 0 01-4.965 0v-.897a6.15 6.15 0 002.483.521zM6.283 23.34a2.495 2.495 0 011.966-2.427l.706-.151v8.24H6.283V23.34zm3.52-2.76l2.615-.56a3.336 3.336 0 002.66 2.05v6.932H9.802v-8.421zm6.122 8.422V22.07a3.336 3.336 0 002.66-2.05l2.616.56v8.422h-5.276zm8.793 0h-2.67v-8.24l.705.151a2.494 2.494 0 011.965 2.427v5.662z" fill="#fff"/><path d="M23.69 24.717a.424.424 0 00-.424.424v1.515a.424.424 0 00.847 0v-1.515a.424.424 0 00-.424-.424zm-10.16-.963h-2.18a.424.424 0 100 .847h2.18a.424.424 0 100-.847z" fill="#fff"/></svg>