<svg width="21" height="21" viewBox="0 0 21 21" fill="none" xmlns="http://www.w3.org/2000/svg">
<g clip-path="url(#clip0)">
<path d="M10.5001 20.9999C9.88222 20.9999 9.32896 20.7622 9.02015 20.3639C9.01689 20.3598 9.01374 20.3555 9.01059 20.3513L1.99189 10.8199C0.316512 8.54468 0.364552 5.84417 2.12042 3.59602C3.83819 1.3966 6.88931 0.0528906 10.2822 0.00153906C10.4271 -0.000675781 10.5729 -0.000675781 10.7177 0.00153906C14.1106 0.0528906 17.1617 1.3966 18.8796 3.59602C20.6354 5.84417 20.6835 8.54464 19.0081 10.8199L11.9894 20.3513C11.9863 20.3555 11.9831 20.3598 11.9798 20.3639C11.6711 20.7621 11.1179 20.9999 10.5001 20.9999ZM10.5 1.3124C10.4392 1.3124 10.3787 1.31285 10.3182 1.31375C7.54861 1.35567 5.05616 2.45485 3.65095 4.25408C2.20771 6.10204 2.16779 8.32127 3.54426 10.1905L10.5 19.6364L17.4557 10.1906C18.8321 8.32127 18.7923 6.10204 17.3489 4.25408C15.9437 2.45489 13.4513 1.35567 10.6817 1.31375C10.6214 1.31285 10.5608 1.3124 10.5 1.3124Z" fill="white"/>
<path d="M10.4998 9.51566C8.30502 9.51566 6.51947 8.19089 6.51947 6.56253C6.51947 4.93417 8.30502 3.60941 10.4998 3.60941C12.6945 3.60941 14.4801 4.93417 14.4801 6.56253C14.4801 8.19089 12.6946 9.51566 10.4998 9.51566ZM10.4998 4.92191C9.28047 4.92191 8.28849 5.65789 8.28849 6.56253C8.28849 7.46717 9.28047 8.20316 10.4998 8.20316C11.7191 8.20316 12.711 7.46717 12.711 6.56253C12.711 5.65789 11.7191 4.92191 10.4998 4.92191Z" fill="white"/>
</g>
<defs>
<clipPath id="clip0">
<rect width="21" height="21" fill="white"/>
</clipPath>
</defs>
</svg>
