<svg width="21" height="21" viewBox="0 0 21 21" fill="none" xmlns="http://www.w3.org/2000/svg">
<path d="M19.0312 0.154419H1.96876C0.883121 0.154419 0 1.3146 0 2.74083V18.2592C0 19.6855 0.883121 20.8456 1.96876 20.8456H19.0312C20.1169 20.8456 21 19.6855 21 18.2592V2.74083C21 1.3146 20.1169 0.154419 19.0312 0.154419ZM19.0312 1.87868C19.1204 1.87868 19.2052 1.90298 19.2828 1.94542L10.5 11.9456L1.71719 1.94542C1.79473 1.90304 1.87956 1.87868 1.96872 1.87868H19.0312ZM19.0312 19.1213H1.96876C1.60668 19.1213 1.31249 18.7349 1.31249 18.2592V3.76712L10.07 13.7381C10.1937 13.8786 10.3468 13.9485 10.5 13.9485C10.6532 13.9485 10.8063 13.8787 10.93 13.7381L19.6875 3.76712V18.2592C19.6875 18.7349 19.3933 19.1213 19.0312 19.1213Z" fill="white"/>
</svg>
