<svg width="20" height="20" viewBox="0 0 20 20" fill="none" xmlns="http://www.w3.org/2000/svg">
<g clip-path="url(#clip0)">
<path d="M15.2738 9.82242H16.6689C16.9843 9.82242 17.2409 9.56582 17.2409 9.25043V7.85535C17.2409 7.53996 16.9843 7.28336 16.6689 7.28336H15.2738C14.9584 7.28336 14.7018 7.53996 14.7018 7.85535V9.25043C14.7018 9.56582 14.9584 9.82242 15.2738 9.82242ZM15.2878 7.8693H16.6549V9.23648H15.2878V7.8693ZM15.2738 13.5334H16.6689C16.9843 13.5334 17.2409 13.2768 17.2409 12.9614V11.5663C17.2409 11.2509 16.9843 10.9943 16.6689 10.9943H15.2738C14.9584 10.9943 14.7018 11.2509 14.7018 11.5663V12.9614C14.7018 13.2768 14.9584 13.5334 15.2738 13.5334ZM15.2878 11.5802H16.6549V12.9474H15.2878V11.5802ZM11.2927 9.82242H12.6878C13.0032 9.82242 13.2598 9.56582 13.2598 9.25043V7.85535C13.2598 7.53996 13.0032 7.28336 12.6878 7.28336H11.2927C10.9773 7.28336 10.7207 7.53996 10.7207 7.85535V9.25043C10.7207 9.56582 10.9773 9.82242 11.2927 9.82242ZM11.3067 7.8693H12.6738V9.23648H11.3067V7.8693ZM4.72561 14.5312H3.33053C3.01514 14.5312 2.75854 14.7879 2.75854 15.1032V16.4983C2.75854 16.8137 3.01514 17.0703 3.33053 17.0703H4.72561C5.041 17.0703 5.2976 16.8137 5.2976 16.4983V15.1032C5.2976 14.7879 5.041 14.5312 4.72561 14.5312ZM4.71166 16.4844H3.34447V15.1172H4.71166V16.4844ZM4.72561 7.28336H3.33053C3.01514 7.28336 2.75854 7.53996 2.75854 7.85535V9.25043C2.75854 9.56582 3.01514 9.82242 3.33053 9.82242H4.72561C5.041 9.82242 5.2976 9.56582 5.2976 9.25043V7.85535C5.2976 7.53992 5.041 7.28336 4.72561 7.28336ZM4.71166 9.23648H3.34447V7.8693H4.71166V9.23648ZM11.2927 13.4464H12.6878C13.0032 13.4464 13.2598 13.1898 13.2598 12.8744V11.4793C13.2598 11.1639 13.0032 10.9073 12.6878 10.9073H11.2927C10.9773 10.9073 10.7207 11.1639 10.7207 11.4793V12.8744C10.7207 13.1898 10.9773 13.4464 11.2927 13.4464ZM11.3067 11.4932H12.6738V12.8604H11.3067V11.4932ZM17.5319 1.33883H16.2793V0.890898C16.2793 0.399648 15.8796 0 15.3884 0H15.2538C14.7626 0 14.363 0.399648 14.363 0.890898V1.33883H5.63643V0.890898C5.63643 0.399648 5.23678 0 4.74553 0H4.611C4.11975 0 3.7201 0.399648 3.7201 0.890898V1.33883H2.46756C1.65877 1.33883 1.00076 1.99684 1.00076 2.80562V18.5352C1.00076 19.3429 1.65787 20 2.46561 20H17.5339C18.3416 20 18.9987 19.3429 18.9987 18.5352V2.80562C18.9987 1.99684 18.3407 1.33883 17.5319 1.33883ZM14.9489 0.890898C14.9489 0.722734 15.0857 0.585938 15.2539 0.585938H15.3884C15.5566 0.585938 15.6934 0.722734 15.6934 0.890898V1.33883H14.9489V0.890898ZM4.30608 0.890898C4.30608 0.722734 4.44287 0.585938 4.61104 0.585938H4.74557C4.91373 0.585938 5.05053 0.722734 5.05053 0.890898V1.33883H4.30611V0.890898H4.30608ZM18.4128 18.5352C18.4128 19.0198 18.0185 19.4141 17.5338 19.4141H2.46557C1.98092 19.4141 1.58666 19.0198 1.58666 18.5352V18.5333C1.83213 18.7183 2.13725 18.8281 2.46756 18.8281H14.3458C14.7376 18.8281 15.106 18.6755 15.383 18.3985L18.4128 15.3687V18.5352ZM15.084 17.8688C15.107 17.774 15.1195 17.6751 15.1195 17.5734V15.6177C15.1195 15.249 15.4196 14.9489 15.7883 14.9489H17.7439C17.8457 14.9489 17.9446 14.9364 18.0394 14.9135L15.084 17.8688ZM18.4128 5.52555H5.9294C5.7676 5.52555 5.63643 5.65672 5.63643 5.81852C5.63643 5.98031 5.7676 6.11148 5.9294 6.11148H18.4128V13.6942C18.4128 14.063 18.1127 14.363 17.7439 14.363H15.7883C15.0965 14.363 14.5336 14.9259 14.5336 15.6178V17.5734C14.5336 17.9422 14.2335 18.2422 13.8648 18.2422H2.46756C1.98186 18.2422 1.5867 17.8471 1.5867 17.3613V6.11148H4.75752C4.91932 6.11148 5.05049 5.98031 5.05049 5.81852C5.05049 5.65672 4.91932 5.52555 4.75752 5.52555H1.58666V2.80562C1.58666 2.31992 1.98182 1.92477 2.46752 1.92477H3.7201V2.78617C3.7201 3.27742 4.11975 3.67707 4.611 3.67707C4.77279 3.67707 4.90397 3.5459 4.90397 3.3841C4.90397 3.2223 4.77279 3.09113 4.611 3.09113C4.44283 3.09113 4.30604 2.95434 4.30604 2.78617V1.92477H14.363V2.78617C14.363 3.27742 14.7626 3.67707 15.2539 3.67707C15.4157 3.67707 15.5469 3.5459 15.5469 3.3841C15.5469 3.2223 15.4157 3.09113 15.2539 3.09113C15.0857 3.09113 14.9489 2.95434 14.9489 2.78617V1.92477H17.5319C18.0176 1.92477 18.4128 2.31992 18.4128 2.80562V5.52555ZM4.72561 10.9073H3.33053C3.01514 10.9073 2.75854 11.1639 2.75854 11.4793V12.8744C2.75854 13.1898 3.01514 13.4464 3.33053 13.4464H4.72561C5.041 13.4464 5.2976 13.1898 5.2976 12.8744V11.4793C5.2976 11.1639 5.041 10.9073 4.72561 10.9073ZM4.71166 12.8604H3.34447V11.4932H4.71166V12.8604ZM7.31162 9.82242H8.7067C9.02209 9.82242 9.27869 9.56582 9.27869 9.25043V7.85535C9.27869 7.53996 9.02209 7.28336 8.7067 7.28336H7.31162C6.99623 7.28336 6.73963 7.53996 6.73963 7.85535V9.25043C6.73963 9.56582 6.99623 9.82242 7.31162 9.82242ZM7.32557 7.8693H8.69276V9.23648H7.32557V7.8693ZM11.3063 16.4844C11.299 16.329 11.1708 16.2054 11.0137 16.2054C10.8519 16.2054 10.7207 16.3365 10.7207 16.4983C10.7207 16.8137 10.9773 17.0703 11.2927 17.0703H12.6878C13.0031 17.0703 13.2597 16.8137 13.2597 16.4983V15.1032C13.2597 14.7879 13.0031 14.5312 12.6878 14.5312H11.2927C10.9773 14.5312 10.7207 14.7879 10.7207 15.1032V15.5056C10.7207 15.6674 10.8519 15.7986 11.0137 15.7986C11.1755 15.7986 11.3066 15.6674 11.3066 15.5056V15.1172H12.6738V16.4844H11.3063ZM7.31162 13.4464H8.7067C9.02209 13.4464 9.27869 13.1898 9.27869 12.8744V11.4793C9.27869 11.1639 9.02209 10.9073 8.7067 10.9073H7.31162C6.99623 10.9073 6.73963 11.1639 6.73963 11.4793V12.8744C6.73963 13.1898 6.99623 13.4464 7.31162 13.4464ZM7.32557 11.4932H8.69276V12.8604H7.32557V11.4932ZM7.31162 17.0703H8.7067C9.02209 17.0703 9.27869 16.8137 9.27869 16.4983V15.1032C9.27869 14.7879 9.02209 14.5312 8.7067 14.5312H7.31162C6.99623 14.5312 6.73963 14.7879 6.73963 15.1032V16.4983C6.73963 16.8137 6.99623 17.0703 7.31162 17.0703ZM7.32557 15.1172H8.69276V16.4844H7.32557V15.1172Z" fill="white"/>
</g>
<defs>
<clipPath id="clip0">
<rect width="20" height="20" fill="white"/>
</clipPath>
</defs>
</svg>
