<svg width="20" height="20" viewBox="0 0 20 20" fill="none" xmlns="http://www.w3.org/2000/svg">
<g clip-path="url(#clip0)">
<path d="M16.7492 17.6979V19.6667C16.7492 19.8508 16.6 20 16.4159 20C16.2318 20 16.0826 19.8508 16.0826 19.6667V17.6979C16.0826 16.165 14.8422 14.9245 13.3091 14.9245C12.5837 14.9245 11.9256 14.555 11.5485 13.936C11.4528 13.7788 11.5026 13.5737 11.6598 13.4779C11.817 13.3822 12.0221 13.432 12.1178 13.5892C12.3729 14.0079 12.8182 14.2579 13.3091 14.2579C15.2104 14.2578 16.7492 15.7965 16.7492 17.6979ZM10.933 14.357C10.9722 14.5368 10.8582 14.7144 10.6784 14.7536C9.80123 14.9447 8.90914 14.7534 8.19886 14.2686C7.4957 15.0221 6.56674 14.9245 6.6911 14.9245C5.15817 14.9245 3.91759 16.1649 3.91759 17.6979V19.6667C3.91759 19.8508 3.76836 20 3.5843 20C3.40024 20 3.25101 19.8508 3.25101 19.6667V17.6979C3.25101 15.7967 4.78951 14.2579 6.69101 14.2579C7.46016 14.2579 8.08371 13.6382 8.08371 12.8688V12.7811C6.62894 12.0855 5.60782 10.6237 5.54558 8.92145C4.94691 8.77751 4.50084 8.24166 4.50084 7.60412V5.87631C4.48264 5.03059 4.6082 2.91241 6.15263 1.42368C8.05967 -0.414658 11.1179 -0.297882 13.3667 0.784684C13.5859 0.890296 13.6192 1.18642 13.4372 1.33978C14.5764 1.61766 15.5588 2.31798 16.1899 3.32027C16.2225 3.37189 16.2821 3.45292 16.2666 3.58219C16.2569 3.66264 16.2329 3.73071 16.1709 3.79362C15.7647 4.20557 15.5411 4.75146 15.5411 5.33075V7.60421C15.5411 7.78826 15.3918 7.93749 15.2078 7.93749C15.0237 7.93749 14.8745 7.78826 14.8745 7.60421V5.33075C14.8745 4.66263 15.1027 4.02847 15.522 3.51903C14.883 2.60515 13.886 2.0174 12.7585 1.89666L12.1727 1.83392C11.8302 1.79726 11.763 1.32536 12.0813 1.19434L12.3477 1.08465C8.87794 -0.124988 5.16738 1.21904 5.16738 5.87268V7.60412C5.16738 7.86859 5.31969 8.09843 5.54233 8.21387V6.0532C5.54233 4.76679 6.58894 3.72017 7.87536 3.72017H12.1248C13.4112 3.72017 14.4578 4.7667 14.4578 6.05308V8.78201C14.4578 11.6805 11.6254 13.8822 8.74316 13.0337C8.72441 13.2715 8.66521 13.5009 8.56877 13.7142C9.12944 14.0993 9.83748 14.2546 10.5364 14.1023C10.7163 14.0631 10.8938 14.1771 10.933 14.357ZM10.0001 12.5478C12.0906 12.5478 13.7913 10.8472 13.7913 8.75668V6.05308C13.7913 5.13428 13.0437 4.38675 12.1248 4.38675H7.87536C6.95648 4.38675 6.20891 5.13432 6.20891 6.0532V8.75668C6.20891 10.8472 7.9096 12.5478 10.0001 12.5478ZM13.3746 18.2919H12.3748C12.1907 18.2919 12.0415 18.4411 12.0415 18.6252C12.0415 18.8092 12.1907 18.9585 12.3748 18.9585H13.3746C13.5587 18.9585 13.7079 18.8092 13.7079 18.6252C13.7079 18.4411 13.5587 18.2919 13.3746 18.2919Z" fill="white"/>
</g>
<defs>
<clipPath id="clip0">
<rect width="20" height="20" fill="white"/>
</clipPath>
</defs>
</svg>
