<svg width="31" height="31" viewBox="0 0 31 31" fill="none" xmlns="http://www.w3.org/2000/svg">
<path d="M29.1836 20.1974V7.72663L30.4097 7.26874C30.764 7.13654 30.9993 6.79809 31 6.41967C31.0007 6.04125 30.7666 5.7021 30.4127 5.56847L15.8209 0.0587138C15.614 -0.0195713 15.386 -0.0195713 15.1793 0.0587138L0.587495 5.56847C0.233202 5.7021 -0.000707927 6.04125 1.60973e-06 6.41967C0.000711146 6.79809 0.23604 7.13654 0.59057 7.26874L5.50977 9.10596V15.7271C5.50977 16.0984 5.73587 16.4324 6.0807 16.5702C9.08984 17.7741 12.2591 18.3843 15.5 18.3843C18.7409 18.3843 21.9102 17.7741 24.9193 16.5702C25.2641 16.4324 25.4902 16.0984 25.4902 15.7271V9.10596L27.3672 8.40494V20.1974C26.3102 20.5722 25.5508 21.5817 25.5508 22.7656C25.5508 23.4629 25.8145 24.0996 26.2468 24.582C25.8145 25.0645 25.5508 25.7012 25.5508 26.3984V30.0918C25.5508 30.5934 25.9573 31 26.459 31H30.0918C30.5934 31 31 30.5934 31 30.0918V26.3984C31 25.7012 30.7363 25.0645 30.3039 24.582C30.7365 24.0996 31 23.4629 31 22.7656C31 21.5817 30.2408 20.5722 29.1836 20.1974ZM15.5 1.87914L27.5084 6.41329C26.9767 6.61195 16.0295 10.7 15.5 10.8978C15.1001 10.7485 4.35346 6.73518 3.49162 6.41329L15.5 1.87914ZM23.6738 15.1039C18.3793 17.0662 12.6207 17.0662 7.32617 15.1039V9.78427L15.1824 12.7182C15.3872 12.7946 15.6128 12.7946 15.8179 12.7182L23.6738 9.78427V15.1039ZM28.2754 21.8574C28.7761 21.8574 29.1836 22.2649 29.1836 22.7656C29.1836 23.2666 28.7761 23.6738 28.2754 23.6738C27.7747 23.6738 27.3672 23.2666 27.3672 22.7656C27.3672 22.2649 27.7747 21.8574 28.2754 21.8574ZM29.1836 29.1836H27.3672V26.3984C27.3672 25.8978 27.7747 25.4902 28.2754 25.4902C28.7761 25.4902 29.1836 25.8978 29.1836 26.3984V29.1836Z" fill="white"/>
<path d="M16.4082 6.41907C16.4082 6.9207 16.0016 7.32727 15.5 7.32727C14.9984 7.32727 14.5918 6.9207 14.5918 6.41907C14.5918 5.91743 14.9984 5.51086 15.5 5.51086C16.0016 5.51086 16.4082 5.91743 16.4082 6.41907Z" fill="white"/>
</svg>
