<svg width="156" height="156" viewBox="0 0 156 156" fill="none" xmlns="http://www.w3.org/2000/svg">
<path d="M78 0C35.1581 0 0 35.1581 0 78C0 114.559 25.6533 147.769 59.7188 156V130.194C56.3434 130.934 53.237 130.955 49.8009 129.942C45.1913 128.582 41.4458 125.511 38.6656 120.829C36.8934 117.839 33.7525 114.597 30.4759 114.835L29.6725 105.73C36.7577 105.123 42.8871 110.047 46.5255 116.16C48.1418 118.878 50.0021 120.472 52.3896 121.176C54.6974 121.856 57.1753 121.53 60.0627 120.51C60.7875 114.729 63.4357 112.565 65.4364 109.518V109.514C45.1199 106.484 37.0231 95.7052 33.8096 87.1978C29.5511 75.9017 31.8363 61.7897 39.3666 52.8716C39.513 52.6978 39.7772 52.2432 39.6748 51.9254C36.2221 41.4958 40.4294 32.8682 40.5841 31.9529C44.5689 33.1312 45.2163 30.7675 57.893 38.4692L60.0841 39.7855C61.0006 40.3318 60.7126 40.02 61.629 39.951C66.9218 38.5132 72.5013 37.7194 77.9988 37.6479C83.5379 37.7194 89.0818 38.5132 94.5936 40.0093L95.3029 40.0807C95.241 40.0712 95.4957 40.0355 95.923 39.7808C111.758 30.1891 111.19 33.324 115.436 31.9434C115.59 32.8598 119.741 41.6279 116.325 51.9254C115.865 53.3441 130.054 66.3374 122.189 87.1942C118.976 95.7052 110.88 106.484 90.5636 109.514V109.518C93.1677 113.488 96.2967 115.599 96.2801 123.788V156C130.347 147.769 155.999 114.559 155.999 78C156 35.1581 120.842 0 78 0Z" fill="#E1FFFF"/>
</svg>
