<svg width="31" height="31" viewBox="0 0 31 31" fill="none" xmlns="http://www.w3.org/2000/svg">
<g clip-path="url(#clip0)">
<rect width="31" height="31" fill="#5F5F5F"/>
<path d="M19.3756 8.39575C18.6626 8.39575 18.084 7.81708 18.084 7.10408V5.16658H12.9173V7.10408C12.9173 7.81708 12.3386 8.39575 11.6256 8.39575C10.9127 8.39575 10.334 7.81708 10.334 7.10408V5.16658C10.334 3.74188 11.4926 2.58325 12.9173 2.58325H18.084C19.5087 2.58325 20.6673 3.74188 20.6673 5.16658V7.10408C20.6673 7.81708 20.0886 8.39575 19.3756 8.39575Z" fill="black"/>
<path d="M16.4171 19.8659C16.1846 19.9564 15.8487 20.0209 15.5 20.0209C15.1512 20.0209 14.8154 19.9564 14.5054 19.8401L0 15.0093V24.8647C0 26.828 1.58875 28.4168 3.55208 28.4168H27.4479C29.4112 28.4168 31 26.828 31 24.8647V15.0093L16.4171 19.8659Z" fill="black"/>
<path d="M31 10.0103V12.9683L15.81 18.0316C15.7067 18.0703 15.6033 18.0833 15.5 18.0833C15.3967 18.0833 15.2933 18.0703 15.19 18.0316L0 12.9683V10.0103C0 8.047 1.58875 6.45825 3.55208 6.45825H27.4479C29.4112 6.45825 31 8.047 31 10.0103V10.0103Z" fill="black"/>
</g>
<defs>
<clipPath id="clip0">
<rect width="31" height="31" fill="white"/>
</clipPath>
</defs>
</svg>
