<svg width="21" height="21" viewBox="0 0 21 21" fill="none" xmlns="http://www.w3.org/2000/svg">
<rect width="21" height="21" fill="#5F5F5F"/>
<path d="M16.4473 0H4.55273C3.87425 0 3.32227 0.551988 3.32227 1.23047C3.32227 1.99611 3.32227 18.9544 3.32227 19.7695C3.32227 20.448 3.87425 21 4.55273 21H16.4473C17.1257 21 17.6777 20.448 17.6777 19.7695C17.6777 18.9544 17.6777 1.99611 17.6777 1.23047C17.6777 0.551988 17.1257 0 16.4473 0ZM4.55273 1.23047H16.4473V3.73242H4.55273V1.23047ZM4.55273 4.96289H16.4473V16.0371H4.55273V4.96289ZM16.4473 19.7695H4.55273V17.2676H16.4479L16.448 19.7695C16.448 19.7695 16.4478 19.7695 16.4473 19.7695Z" fill="black"/>
<path d="M12.1406 1.88672H8.85938C8.5196 1.88672 8.24414 2.16218 8.24414 2.50195C8.24414 2.84173 8.5196 3.11719 8.85938 3.11719H12.1406C12.4804 3.11719 12.7559 2.84173 12.7559 2.50195C12.7559 2.16218 12.4804 1.88672 12.1406 1.88672Z" fill="black"/>
<path d="M10.5 19.1543C10.8398 19.1543 11.1152 18.8788 11.1152 18.5391C11.1152 18.1993 10.8398 17.9238 10.5 17.9238C10.1602 17.9238 9.88477 18.1993 9.88477 18.5391C9.88477 18.8788 10.1602 19.1543 10.5 19.1543Z" fill="black"/>
</svg>
