<svg width="31" height="31" viewBox="0 0 31 31" fill="none" xmlns="http://www.w3.org/2000/svg">
<path d="M15.6871 31C20.1717 31 18.5727 26.4575 18.9188 25.1513C18.9137 24.1759 18.9085 23.2376 18.9292 22.6672C19.2133 22.7953 19.8837 23.3389 21.2684 25.4923C23.406 28.9437 23.9524 31 25.6793 31H28.8581C29.8656 31 30.39 30.3325 30.6522 29.7724C30.9054 29.2309 31.1534 28.2803 30.8821 26.8005C30.173 23.2376 26.0371 17.0851 25.7801 16.4362C25.8188 16.3163 25.8808 16.1572 25.9131 16.0745H25.9105C26.7269 14.3489 29.8423 6.87993 30.3009 3.89153C30.3022 3.8874 30.3035 3.8812 30.3035 3.875C30.5515 2.511 30.3241 1.62647 30.089 1.12633C29.7351 0.3782 29.172 0 28.4112 0H25.2324C24.1681 0 23.3608 0.857666 22.9527 2.42213C22.2694 5.2018 20.35 10.9182 18.9111 12.9415C18.8672 10.075 18.8969 7.8864 18.9201 6.25993C18.9666 3.0876 19.1165 0 17.0589 0H12.0627C10.7737 0 9.54015 2.25267 10.8757 4.92693C12.0434 7.27053 11.2955 8.57667 11.5474 15.0784C10.5657 13.3941 8.8194 8.84533 7.58458 3.0318C7.23842 1.45907 6.71401 0.00206652 5.23765 0.00206652H2.05889C0.769825 0.00206652 0 1.12633 0 3.00907C0 7.23747 5.84989 31 15.6871 31V31ZM5.23765 3.10207C5.51794 3.10207 5.54636 3.10207 5.75431 4.04653C7.01884 10.0047 9.85531 18.8211 11.9271 18.8211C13.4836 18.8211 13.4836 16.2688 13.4836 15.3078L13.4823 7.657C13.397 5.12533 12.8209 3.86467 12.4425 3.1L16.9736 3.10827C16.9762 3.1434 16.9478 11.5713 16.9865 13.6131C16.9865 16.5127 18.4254 18.1743 20.6716 14.5369C23.0418 10.2569 24.6809 3.85847 24.7468 3.59807C24.8436 3.22607 24.9276 3.1 25.2324 3.1H28.4112H28.4241C28.4228 3.1062 28.4228 3.1124 28.4215 3.1186C28.1309 5.2886 25.2621 12.2037 24.3024 14.3509C24.2869 14.384 24.2727 14.4191 24.2585 14.4543C23.8362 15.5579 23.4926 16.7772 24.3167 18.4925H24.3179C24.3929 18.6372 24.5879 18.9761 24.8721 19.4473C25.7556 20.9064 28.7858 25.8953 29.0544 27.8793C28.8762 27.9248 28.6824 27.8917 25.6793 27.9021C25.04 27.9021 24.5401 26.3727 22.6323 23.2934C20.917 20.6233 19.8036 19.5321 18.7897 19.5321C16.8212 19.5321 16.9646 22.0885 16.9826 25.1803C16.9891 28.5324 16.9762 27.4722 16.9904 27.683C16.8754 27.7553 16.5461 27.9 15.6871 27.9C7.49159 27.9 2.15448 7.0866 1.9491 3.10827C2.02014 3.09793 2.99793 3.10413 5.23765 3.10207V3.10207Z" fill="black"/>
</svg>
