<svg width="31" height="31" viewBox="0 0 31 31" fill="none" xmlns="http://www.w3.org/2000/svg">
<g clip-path="url(#clip0)">
<path d="M25.9177 15.5015L30.8071 9.25464C31.2721 8.66073 30.8489 7.78674 30.092 7.78674H20.345V5.33913C20.345 4.83756 19.9384 4.43099 19.4368 4.43099H5.96112C6.14706 4.02684 6.24551 3.58375 6.24551 3.12517C6.24551 0.358725 2.88055 -1.04875 0.914961 0.916725C-0.735487 2.56717 -0.056938 5.42589 2.21521 6.1125V29.1837H1.01977C0.518197 29.1837 0.111564 29.5903 0.111564 30.0918C0.111564 30.5934 0.518197 31 1.01977 31H5.22693C5.7285 31 6.13513 30.5934 6.13513 30.0918C6.13513 29.5903 5.7285 29.1837 5.22693 29.1837H4.03155V19.8605H18.5287V22.3081C18.5287 22.8097 18.9353 23.2163 19.4369 23.2163H30.092C30.8463 23.2163 31.2737 22.3443 30.8071 21.7484L25.9177 15.5015ZM1.81759 3.12517C1.81759 2.77545 1.95316 2.44723 2.19928 2.20117C2.19928 2.20111 2.19928 2.20111 2.19928 2.20111C2.70872 1.69166 3.53791 1.69148 4.04741 2.20117C4.55686 2.71049 4.5568 3.53986 4.04741 4.04918C3.23118 4.86565 1.81759 4.28816 1.81759 3.12517ZM4.03155 18.0442V6.24733H18.5287V18.0442H4.03155ZM20.345 21.4C20.345 20.9663 20.345 10.1367 20.345 9.60308H28.2279L24.0493 14.9418C23.7919 15.2706 23.7919 15.7325 24.0493 16.0613L28.2279 21.4H20.345V21.4Z" fill="#FFC107"/>
</g>
<defs>
<clipPath id="clip0">
<rect width="31" height="31" fill="white"/>
</clipPath>
</defs>
</svg>
