<svg width="156" height="156" viewBox="0 0 156 156" fill="none" xmlns="http://www.w3.org/2000/svg">
<g clip-path="url(#clip0)">
<path d="M15.8726 44.6082C8.95044 44.6082 5.875 47.2885 5.875 55.6245C5.875 61.1327 6.65576 64.2081 6.65576 68.9355C6.65576 71.6158 5.00855 74.4437 0.00976562 74.6865V81.342C5.00855 81.4658 6.65576 84.2985 6.65576 86.9788C6.65576 91.7062 5.875 94.5341 5.875 100.042C5.875 108.378 8.95044 111.059 15.7488 111.059H20.7476V105.155H19.2146C16.0201 105.155 14.9966 103.87 14.9966 99.6519C14.9966 95.4338 15.387 91.8204 15.387 87.093C15.387 81.1945 13.4636 78.9093 9.63599 78.0095V77.6191C13.4874 76.7194 15.387 74.4247 15.387 68.5261C15.387 63.9177 14.9966 60.1853 14.9966 55.9673C14.9966 51.7493 15.9011 50.5876 19.2146 50.5876H22.6519V87.3501C22.6519 95.1768 25.3274 100.29 33.1541 100.29C35.5916 100.29 37.5149 99.8994 38.905 99.3853L37.6196 91.054C36.8627 91.2539 36.4961 91.2539 36.1057 91.2539C35.2059 91.2539 34.0586 90.4684 34.0586 88.0547V44.6082H15.8726ZM135.253 44.6367V50.54H136.795C140.256 50.54 141.013 51.6874 141.013 55.9292C141.013 59.9044 140.623 63.8701 140.623 68.4785C140.623 74.3771 142.546 76.6718 146.374 77.5715V77.9619C142.523 78.8617 140.623 81.1564 140.623 87.0549C140.623 91.6633 141.013 95.3862 141.013 99.6042C141.013 103.965 140.109 105.117 136.795 105.117V105.241H135.253V111.382H140.252C147.026 111.382 150.126 108.702 150.126 100.366C150.126 94.8578 149.345 92.0251 149.345 87.0549C149.345 84.3746 151.001 81.5468 156 81.304V74.6484C151.001 74.4771 149.345 71.6444 149.345 68.9641C149.345 63.9653 150.126 61.0232 150.126 55.6626C150.126 47.3265 147.05 44.6367 140.252 44.6367H135.253ZM54.8059 59.9949C45.4463 59.9949 36.4913 67.8215 36.7341 80.1138C36.7341 92.7869 45.075 100.223 56.0723 100.223C60.6807 100.223 65.7985 98.5664 69.7737 95.8623L65.9175 89.083C63.0896 90.7397 60.4141 91.5205 57.5862 91.5205C52.4684 91.5205 48.4884 89.0878 47.4648 83.1892H70.6782C70.802 82.2894 71.0686 80.5042 71.0686 78.457C71.2114 68.0643 65.5557 59.9949 54.8059 59.9949ZM89.2546 60.1187C80.552 60.1187 74.6487 65.1174 74.6487 72.1633C74.6487 78.4285 80.1616 81.6372 84.77 83.4177C88.7452 84.9554 92.5872 86.2456 92.5872 88.8069C92.5872 90.7302 91.059 91.9966 87.5979 91.9966C84.4035 91.9966 81.1852 90.7064 77.7241 88.0261L72.7253 95.4624C76.5768 98.6569 82.4468 100.852 87.3218 100.852C97.5574 100.852 103.08 95.4624 103.08 88.4165C103.099 81.3754 97.5859 78.4237 92.5872 76.7622C88.6119 75.2245 85.0366 74.3342 85.0366 71.7729C85.0366 69.8496 86.5696 68.6975 89.3975 68.6975C92.2253 68.6975 94.7819 69.8401 97.5859 71.8872L102.709 65.1174C99.514 62.6799 95.1532 60.1187 89.2546 60.1187ZM120.38 60.1187C111.678 60.1187 105.784 65.1174 105.784 72.1633C105.784 78.4285 111.287 81.6372 115.896 83.4177C119.871 84.9554 123.722 86.2456 123.722 88.8069C123.722 90.7302 122.185 91.9966 118.724 91.9966C115.529 91.9966 112.311 90.7064 108.85 88.0261L103.737 95.4624C107.588 98.6569 113.458 100.852 118.333 100.852C128.569 100.852 134.091 95.4624 134.091 88.4165C134.091 81.3706 128.597 78.4237 123.599 76.7622C119.747 75.2245 116.162 74.3342 116.162 71.7729C116.162 69.8496 117.705 68.6975 120.533 68.6975C123.361 68.6975 125.917 69.8401 128.721 71.8872L133.834 65.1174C130.64 62.6799 126.279 60.1187 120.38 60.1187ZM54.9297 68.5737C59.5381 68.5737 61.3377 71.7729 61.3377 76.1338H47.4934C48.2742 71.016 51.3449 68.5737 54.9297 68.5737Z" fill="#FFC107" fill-opacity="0.2"/>
</g>
<defs>
<clipPath id="clip0">
<rect width="156" height="156" fill="white"/>
</clipPath>
</defs>
</svg>
