<svg width="156" height="156" viewBox="0 0 156 156" fill="none" xmlns="http://www.w3.org/2000/svg">
<path d="M108.002 4.87498C107.805 4.88212 107.65 4.93925 107.545 5.03684L89.4353 26.5459L85.741 39.2475C83.2297 39.1642 80.6375 39.1333 77.981 39.1333C59.1594 39.1333 43.875 41.128 43.875 43.5989C43.875 49.4974 112.077 49.4974 112.077 43.5989C112.077 41.7707 103.913 40.2259 92.1394 39.4951L95.0625 29.0405L112.001 8.66453L112.03 8.63596C112.411 8.24082 111.668 7.0554 110.459 6.01755C109.552 5.23441 108.597 4.85117 108.002 4.87498ZM84.3508 44.2463L84.2842 44.4463C84.2556 44.4701 84.2556 44.5034 84.2556 44.532C84.2556 44.8985 85.7314 45.1985 87.531 45.1985C89.3306 45.1985 90.8159 44.8985 90.8159 44.532L90.873 44.3034C91.3467 44.4748 91.6062 44.67 91.6062 44.8938C91.6062 45.4841 89.7781 45.9649 87.5024 45.9411C85.2887 45.9411 83.4558 45.4936 83.4558 44.9033C83.4558 44.651 83.82 44.4177 84.3508 44.2463ZM111.697 45.9221C102.673 50.7328 53.3798 50.7662 44.3225 45.9887L48.3311 81.2468C50.0711 75.6267 54.4724 68.0381 60.1377 65.7363C61.9944 64.977 63.882 64.9793 65.6506 65.9934C67.186 66.836 68.4857 68.6047 68.6309 69.3069C68.9879 71.135 68.0429 71.8586 67.3074 71.8586C66.4195 71.8586 65.7411 70.5708 65.2983 69.8115C64.0891 67.7596 62.2586 67.6715 60.3091 69.0212C58.2715 70.4256 56.5005 72.787 55.2627 74.8388C53.7559 77.3097 52.4872 80.0352 51.7207 82.7607C51.278 84.3365 50.8709 86.8573 51.5493 88.3498C51.8469 88.9687 52.2849 89.3591 52.9966 89.3591C54.4748 89.3591 56.6195 87.5072 57.6526 86.5217C58.9785 85.2601 60.6899 83.2892 61.3374 82.0276L62.8799 77.6762C63.6464 75.7648 65.7935 76.1004 65.7935 77.6762C65.7935 80.5422 64.708 81.4991 62.8513 87.4262C61.1398 92.9059 60.6042 94.6816 60.6042 94.6816C60.3995 95.4671 59.5997 96.7859 58.7476 96.7859C58.3905 96.7859 58.131 96.6668 57.9858 96.4431C57.6883 96.048 57.7192 94.9649 57.7478 94.6816C57.8073 93.7842 59.6021 88.4403 59.8997 87.5976C59.3093 88.2165 58.6928 88.8402 58.0144 89.4543C56.4196 90.8873 53.8583 92.7678 51.6731 92.7678C50.6686 92.7678 50.0259 92.5107 49.407 92.0918L51.6445 114.458C52.2349 115.862 63.2131 119.266 77.6667 119.266C92.1513 119.266 103.118 115.838 103.679 114.458L106.898 87.8833C105.215 89.3448 103.272 91.1468 101.118 92.0442C99.5233 92.6916 95.9861 93.1058 95.9861 90.435C95.9861 88.9735 98.6735 86.2813 100.233 84.3984C100.647 83.92 101.613 82.7417 101.613 82.1228C101.613 81.3087 99.8494 81.4967 98.1665 82.8178C97.2215 83.5772 96.3312 84.596 95.5957 85.5505C94.3293 87.2382 93.6533 88.6926 93.0916 89.9018C91.2634 93.889 91.8847 92.3179 90.4065 96.0813C88.9283 99.8208 89.1711 99.3947 88.8735 100.014C88.6093 100.549 88.2237 101.002 87.6929 101.28C87.1311 101.563 86.367 101.53 85.8933 101.194C85.6291 101.023 85.5029 100.659 85.5029 100.156C85.5029 99.9041 85.5386 99.6471 85.5981 99.3947C86.0409 97.6785 87.9 94.3127 90.0256 89.759C90.4993 88.7212 90.3184 89.0282 90.2542 89.1115C88.426 90.7992 87.0359 91.6157 86.0076 92.0632C84.2961 92.794 82.1704 92.794 81.7324 90.9111C81.7039 90.7992 81.7039 90.6802 81.6753 90.5683C78.1952 93.151 74.508 93.8556 75.7815 88.2927C74.4271 90.5993 72.061 92.4821 69.1641 92.4821C67.9548 92.4821 67.0693 92.0918 66.6313 91.0539C65.9529 89.5091 67.0122 86.8621 67.9834 84.3603C68.4857 83.0987 69.1712 81.5777 70.0876 79.8091C70.5613 78.8545 71.3207 78.2904 72.3252 78.5427C72.5013 78.6022 72.6561 78.6593 72.8013 78.7427C73.5677 79.2497 73.2726 80.0019 72.887 80.7612C71.7658 82.8678 70.7922 84.4127 70.1448 86.6074C69.8806 87.5334 69.5497 89.1401 70.5828 89.1401C71.2897 89.1401 71.9681 88.9116 72.6204 88.4641C73.9748 87.5096 75.0674 86.0789 75.8958 84.6745C76.4861 83.6653 77.1978 82.3442 77.5525 81.2182C77.6977 80.7398 77.881 80.2899 78.0857 79.8662C78.4118 79.164 78.8474 78.438 79.6187 78.438C80.0043 78.438 80.3232 78.5784 80.5613 78.8569C81.0635 79.4758 80.954 80.1114 80.6851 80.7898C80.0947 82.3656 79.2997 83.7724 78.6475 85.4839C78.2618 86.4693 77.8477 87.7309 77.8477 88.7688C77.8477 89.7233 78.9402 89.4972 79.8567 89.102C80.5637 88.795 81.2706 88.3236 81.8657 87.8452C82.2228 86.4693 82.1276 86.774 89.6543 68.6784C90.0399 67.7525 90.7469 67.355 91.4539 67.355C91.8109 67.355 92.0989 67.474 92.3965 67.6692C92.8987 68.0357 92.9059 68.8117 92.7012 69.4021C92.4965 69.9377 92.5179 69.771 91.3682 72.3537C89.8328 75.7505 88.8331 78.2023 87.4739 81.323C86.9121 82.6155 85.2054 86.6336 84.9126 87.5881C84.7365 88.207 84.5246 89.2163 85.2078 89.2163C86.8026 89.2163 90.904 85.5338 92.0251 84.4365C92.0847 84.3532 92.1751 84.3246 92.2917 84.2651C92.4679 83.7295 92.6417 83.2297 92.7869 82.7226C93.201 81.6562 93.5867 80.4113 94.3579 79.5425C94.5912 79.2592 94.8554 79.0949 95.1482 79.0949C95.9718 79.0949 96.386 79.4282 96.386 80.2185C96.386 80.5256 96.1837 81.6538 96.0623 81.9609C96.4764 81.542 96.912 81.123 97.3857 80.7041C101.813 76.8003 104.965 78.7926 104.965 80.7612C104.965 82.8369 102.342 85.7267 100.899 87.331C100.425 87.8666 99.4519 88.8473 99.4233 89.1306C99.4233 89.4972 99.6852 89.6447 100.071 89.6447C100.661 89.6447 101.958 88.6569 102.432 88.3213C103.91 87.2239 105.907 85.541 107.326 84.3603L111.697 45.9221ZM53.2822 117.152L57.6812 124.293L59.395 146.602C59.395 149.104 67.743 151.125 78.0095 151.125C88.2761 151.125 96.624 149.104 96.624 146.602L97.9856 124.065L102.137 117.152C90.4517 121.846 65.4412 122.013 53.2822 117.152Z" fill="#FFC107" fill-opacity="0.2"/>
</svg>
