<svg width="156" height="156" viewBox="0 0 156 156" fill="none" xmlns="http://www.w3.org/2000/svg">
<path d="M151.907 68.1308L87.8692 4.09341C85.1535 1.36447 81.5768 0 78 0C74.4232 0 70.8465 1.36447 68.1308 4.09341L55.4664 16.7578L71.1379 32.4293C76.3441 29.3692 83.1267 30.0316 87.591 34.4959C92.0554 38.9603 92.7045 45.7429 89.6444 50.9358L105.051 66.3424C110.257 63.2823 117.04 63.9446 121.504 68.409C126.803 73.7079 126.803 82.2921 121.504 87.591C116.205 92.8899 107.621 92.8899 102.322 87.591C97.8577 83.1267 97.1953 76.3441 100.255 71.1379L84.8488 55.7313C83.7493 56.3804 82.5968 56.8573 81.3913 57.162V98.8247C87.2334 100.335 91.5652 105.594 91.5652 111.913C91.5652 119.411 85.498 125.478 78 125.478C70.502 125.478 64.4348 119.411 64.4348 111.913C64.4348 105.594 68.7666 100.335 74.6087 98.8247V57.162C72.3434 56.5791 70.1841 55.4531 68.409 53.678C63.9446 49.2137 63.2955 42.431 66.3556 37.2381L50.6709 21.5533L4.09341 68.1308C-1.36447 73.5754 -1.36447 82.4246 4.09341 87.8692L68.1308 151.907C70.8465 154.636 74.4232 156 78 156C81.5768 156 85.1535 154.636 87.8692 151.907L151.907 87.8692C157.364 82.4246 157.364 73.5754 151.907 68.1308Z" fill="#FFC107" fill-opacity="0.2"/>
</svg>
