<svg width="156" height="156" viewBox="0 0 156 156" fill="none" xmlns="http://www.w3.org/2000/svg">
<g opacity="0.2">
<path d="M148.848 1.3001C148.198 0.649898 147.548 0 146.248 0H9.74784C9.09795 0 7.79815 0.649898 7.14795 1.3001C6.49774 1.9503 6.49805 2.6002 6.49805 3.9L19.4981 133.9C19.4981 135.2 20.7982 136.5 21.4478 136.5L79.9478 156H81.2479H82.548L134.548 136.5C135.848 135.85 136.498 135.2 136.498 133.9L149.498 3.9C149.498 3.25041 149.498 1.95 148.848 1.3001ZM77.9981 117.65C77.9981 118.3 77.3479 119.6 76.698 120.25C76.0481 120.9 75.3596 120.986 74.71 120.986L74.0984 120.9L51.3483 114.4C50.0482 113.75 49.3987 113.1 48.7484 111.8L45.4983 95.55C44.8484 93.6003 46.1482 92.2999 48.0982 91.65C50.0479 91.0001 51.3484 92.2999 51.9986 94.2499L54.5984 108.55L71.4986 113.1V39.6502H35.748C33.7983 39.6502 32.4979 38.3501 32.4979 36.4001C32.4979 34.4504 33.798 33.15 35.748 33.15H74.748C76.6977 33.15 77.9981 34.4501 77.9981 36.4001V117.65ZM123.498 37.05L120.248 50.0501C119.598 51.9998 118.273 52.9626 116.348 52.65C114.319 52.3209 113.542 50.6893 113.748 48.7497C113.993 46.4359 115.698 39.6499 115.698 39.6499H90.3477V72.15H113.098C113.748 72.15 115.048 72.7999 115.698 73.4501C116.348 74.1 116.348 75.3998 116.348 76.05L109.848 111.8C109.848 113.1 108.548 113.75 107.898 114.4L88.398 120.9C87.7481 120.9 85.3865 121.799 83.8478 118.95C83.1979 117 84.4977 115.7 85.7975 115.05L103.348 109.2L108.548 79.2995H86.4474C84.4977 79.2995 83.1973 77.9994 83.1973 76.0494V37.0494C83.1973 35.0997 84.4974 33.7993 86.4474 33.7993H118.948C120.248 33.7993 121.137 34.0772 121.987 34.4291C123.789 35.1759 123.498 36.4001 123.498 37.05Z" fill="#FFC107"/>
</g>
</svg>
