<svg width="156" height="156" viewBox="0 0 156 156" fill="none" xmlns="http://www.w3.org/2000/svg">
<path d="M88.8443 0.0278101C88.5152 0.0765632 88.1861 0.174063 87.8693 0.32031C85.188 1.64875 82.1411 5.5975 81.5561 6.3775C81.5196 6.42625 81.483 6.475 81.4586 6.52375C78.4483 11.0331 76.8396 16.3103 76.7786 21.8069C76.7421 25.9263 77.5465 30.0091 79.1796 33.9456C82.9821 43.0741 90.8796 50.6303 100.276 54.1647C100.593 54.2744 100.898 54.3841 101.446 54.5791C101.495 54.6034 101.958 54.7497 102.031 54.7619L102.372 54.8837C102.86 55.0422 103.36 55.2006 103.847 55.2981C106.321 55.7978 108.734 56.0781 111.001 56.1512C111.391 56.1512 111.781 56.1634 112.171 56.1634C129.27 56.1634 135.9 44.0978 138.106 40.0759C138.326 39.6859 138.484 39.3691 138.63 39.1741C138.63 39.1619 138.63 39.1619 138.642 39.1497C139.605 37.7238 139.24 35.7859 137.814 34.8109C136.4 33.8481 134.462 34.2138 133.487 35.6397H133.475C128.917 42.355 121.117 44.3903 110.306 41.7091C109.502 41.5141 108.625 41.2094 107.845 40.9169C106.821 40.5513 105.797 40.1247 104.846 39.6616C102.957 38.7231 101.178 37.6019 99.5693 36.3587C90.063 28.9853 86.3458 13.6413 91.9033 4.78094C92.6468 3.59875 92.5127 2.06312 91.5743 1.02719C90.8674 0.247187 89.8436 -0.10625 88.8443 0.0278101ZM61.203 6.24344C60.4961 6.23125 59.7771 6.46281 59.1921 6.95031C54.4755 10.7894 49.6493 17.0781 49.4421 17.3341C49.4177 17.3828 49.3933 17.4194 49.3568 17.4681C40.8255 29.8872 40.1796 47.5591 47.7236 62.4888C48.9058 64.8531 50.2465 67.1078 51.6724 69.1797L52.099 69.7891C53.3055 71.5563 54.6583 73.555 56.389 75.115C56.9861 75.7975 57.6321 76.4556 58.2658 77.0894L58.5705 77.4062L58.8265 77.6622C59.4724 78.2838 60.1305 78.9175 60.813 79.5269H60.8252C60.874 79.6 60.9471 79.6488 61.008 79.7097C61.7758 80.3922 62.5558 81.0381 63.5918 81.8547L63.8721 82.0619C64.6765 82.7078 65.493 83.3172 66.334 83.9144C66.4193 83.9753 66.5046 84.0362 66.5899 84.0972C66.8824 84.2922 67.1749 84.475 67.4674 84.6822L67.7599 84.8772L68.1011 85.0966C68.7227 85.5109 69.3321 85.8887 70.1974 86.3884C70.758 86.7297 71.3552 87.0709 71.7452 87.2659C71.9158 87.3634 72.0986 87.4609 72.5252 87.6925L73.4758 88.1922C73.5246 88.2166 73.744 88.3141 73.7927 88.3384C74.4143 88.6553 75.0602 88.96 75.7061 89.2525L76.6933 89.6912C77.3393 89.9716 77.9974 90.2397 78.8018 90.5444L79.1674 90.6784C79.1918 90.7028 79.4965 90.8125 79.5208 90.8247C80.1058 91.0319 80.703 91.2391 81.3002 91.4341L82.6652 91.885C83.3477 92.1166 84.1399 92.3847 85.0052 92.5309C89.2586 93.2378 93.3902 93.6034 97.3024 93.6034C97.7655 93.6034 98.2286 93.5912 98.6796 93.5912C133.121 92.8356 142.079 63.5734 142.165 63.2809C142.591 61.8062 141.896 60.2341 140.507 59.5759C139.118 58.9178 137.46 59.3809 136.595 60.6484C127.869 73.3966 111.367 78.7834 94.5602 74.3472C93.7802 74.1522 93.0246 73.9328 92.0861 73.6281C91.9277 73.5794 91.7936 73.5306 91.5377 73.4331C90.9893 73.2625 90.453 73.0797 89.8436 72.8481L88.9783 72.5191C88.4786 72.3241 87.979 72.1291 87.3696 71.8609L86.9674 71.6781C86.224 71.3613 85.5049 71.0078 84.859 70.6909L83.0796 69.7647C82.6774 69.5697 82.324 69.3503 81.7755 69.0212L81.4708 68.8506L81.1661 68.6678C80.7152 68.3997 80.2643 68.1194 79.8499 67.8269L79.5574 67.6441C79.533 67.6319 79.2893 67.4613 79.2649 67.4369C78.8993 67.2053 78.5458 66.9737 78.2046 66.7544C77.449 66.2181 76.7055 65.6575 75.8402 64.975L75.499 64.6947C67.4552 58.2719 61.5077 49.6919 58.7168 40.4903C56.1208 32.0444 58.0465 20.9903 63.8721 10.9234C64.6277 9.61937 64.3474 7.96187 63.1896 6.98687C62.6168 6.49937 61.9099 6.24344 61.203 6.24344ZM26.8708 15.6034C26.1274 15.6034 25.3718 15.8716 24.7746 16.4078C18.8149 21.7581 14.3543 28.6928 13.8668 29.485C1.11865 48.0466 3.58053 76.8944 12.3312 94.5297C12.5018 94.8953 12.6846 95.2487 12.8674 95.6022L12.9893 95.7972C13.1477 96.1506 13.3305 96.5163 13.3915 96.5894C13.489 96.8209 13.6352 97.0769 13.6962 97.15C13.8424 97.4547 13.9887 97.7228 14.2568 98.1859L15.2562 99.9044C15.4024 100.136 15.5487 100.38 15.5974 100.465C15.7924 100.782 15.9996 101.111 16.2068 101.44L16.6943 102.22C16.8405 102.452 16.9868 102.659 17.0843 102.781C17.5718 103.536 18.0593 104.292 18.5955 105.011C18.6199 105.048 18.6443 105.072 18.6687 105.096L18.8637 105.364C19.3024 105.998 19.7533 106.608 20.1555 107.107L21.9349 109.362C21.9593 109.386 22.1543 109.618 22.1665 109.642L22.4224 109.935C22.9587 110.593 23.5315 111.251 24.1043 111.885C24.1896 111.982 24.2749 112.068 24.3602 112.165C24.9086 112.762 25.4693 113.359 26.0543 113.981L26.6149 114.517C27.078 115.005 27.5412 115.48 28.0287 115.931C28.0287 115.943 28.2602 116.163 28.2602 116.163L28.7477 116.613C29.3327 117.174 29.9421 117.735 30.4052 118.125C30.4296 118.161 30.8683 118.539 30.9049 118.563C31.4777 119.075 32.0505 119.563 32.6355 120.038L35.6215 122.403C36.1211 122.768 36.633 123.134 37.218 123.56C37.413 123.707 37.6202 123.853 37.8274 123.987C37.9127 124.06 38.0102 124.133 38.0711 124.17L40.3136 125.669C41.1302 126.205 41.9468 126.705 42.9461 127.302L43.4824 127.607C44.104 127.972 44.7377 128.338 45.3349 128.655C45.6883 128.85 46.0418 129.02 46.3465 129.179C46.773 129.41 47.2361 129.666 47.943 130.008C48.004 130.044 48.5037 130.288 48.5646 130.312C49.2715 130.666 49.9905 130.995 50.8924 131.397C50.8924 131.409 51.1849 131.543 51.1849 131.543C52.0136 131.897 52.818 132.238 53.8783 132.664C54.049 132.738 54.2196 132.798 54.2561 132.811C55.0118 133.103 55.804 133.396 56.4499 133.627C56.5108 133.652 56.8399 133.786 56.9008 133.81C57.7661 134.103 58.6193 134.383 59.7161 134.724C59.899 134.785 60.094 134.846 60.1183 134.846L60.7399 135.041C61.4955 135.273 62.2511 135.516 63.0677 135.675C68.869 136.735 74.5361 137.283 79.8986 137.283H79.9108C124.602 137.283 138.837 101.318 138.984 100.953C139.532 99.5022 138.935 97.8691 137.57 97.1134C136.229 96.37 134.523 96.7234 133.572 97.9544C122.104 113.055 100.471 118.661 75.7061 112.969C75.109 112.823 74.4996 112.653 73.9024 112.47L72.7324 112.116C71.9402 111.873 71.148 111.604 70.3802 111.336C70.368 111.336 70.0146 111.202 70.0146 111.202C69.3321 110.971 68.6496 110.703 68.0524 110.471L67.3699 110.203C66.6143 109.898 65.8586 109.581 65.1274 109.252L64.7008 109.069C64.0427 108.765 63.409 108.472 62.7752 108.155C62.7265 108.131 62.2268 107.887 62.178 107.875C61.7393 107.656 61.3005 107.424 60.7399 107.119L58.1927 105.754C57.9368 105.584 57.6686 105.425 57.4127 105.291C56.6449 104.816 55.8527 104.341 55.0727 103.841C54.8899 103.731 54.7315 103.609 54.4268 103.402C53.8905 103.061 53.3665 102.708 52.5986 102.171L52.294 101.952C51.7699 101.586 51.258 101.196 50.8315 100.879C50.5633 100.684 50.2952 100.465 49.8565 100.136C49.4665 99.8313 49.0765 99.5387 48.7108 99.2462L48.0283 98.6856C47.4555 98.2225 46.9193 97.735 46.3587 97.2597C46.2855 97.1866 46.2246 97.1378 46.1393 97.0769C45.5177 96.5041 44.884 95.9313 44.1283 95.2122L41.9224 93.0184C41.3862 92.47 40.8499 91.9094 40.2405 91.2391C39.6799 90.6175 39.1437 89.9959 38.4246 89.1428L37.1083 87.5341C36.9499 87.3025 36.7793 87.0709 36.5721 86.8272C36.1212 86.2178 35.6702 85.6206 35.2193 84.9869C23.0805 68.2656 19.9118 33.3606 29.3693 20.5759C30.3199 19.2963 30.1493 17.4925 28.9549 16.4078C28.3699 15.8716 27.6143 15.6034 26.8708 15.6034Z" fill="#FFC107" fill-opacity="0.2"/>
</svg>
