<svg width="31" height="31" viewBox="0 0 31 31" fill="none" xmlns="http://www.w3.org/2000/svg">
<path d="M22.9304 20.0844L21.7164 19.8243L21.712 19.8228L18.7999 19.1999C18.8196 19.0573 18.83 18.9135 18.8309 18.7695V17.4172C19.7049 16.8589 20.4244 16.0896 20.9229 15.1802C21.4215 14.2708 21.6832 13.2506 21.6839 12.2135V11.1116H22.3492C22.4049 11.1116 22.46 11.1007 22.5114 11.0794C22.5629 11.0581 22.6096 11.0269 22.649 10.9875C22.6883 10.9481 22.7195 10.9014 22.7408 10.85C22.7621 10.7985 22.7731 10.7434 22.773 10.6877V9.23461C22.7731 9.17894 22.7621 9.12382 22.7408 9.07238C22.7195 9.02094 22.6883 8.97421 22.649 8.93485C22.6096 8.89548 22.5629 8.86427 22.5114 8.84298C22.46 8.82169 22.4049 8.81075 22.3492 8.81078H22.0433C22.0257 7.35371 21.521 5.94443 20.6097 4.80739C19.6984 3.67035 18.4328 2.87092 17.0145 2.53643V1.57422C17.0146 1.51855 17.0036 1.46342 16.9823 1.41199C16.961 1.36055 16.9298 1.31382 16.8905 1.27446C16.8511 1.23509 16.8044 1.20388 16.7529 1.18259C16.7015 1.1613 16.6464 1.15036 16.5907 1.15039H14.411C14.2986 1.15039 14.1908 1.19504 14.1113 1.27453C14.0318 1.35401 13.9872 1.46181 13.9872 1.57422V2.53643C12.5689 2.87092 11.3034 3.67035 10.392 4.80739C9.48071 5.94443 8.97605 7.35371 8.95841 8.81078H8.65252C8.59686 8.81075 8.54173 8.82169 8.49029 8.84298C8.43886 8.86427 8.39212 8.89548 8.35276 8.93485C8.3134 8.97421 8.28218 9.02094 8.26089 9.07238C8.2396 9.12382 8.22866 9.17894 8.2287 9.23461V10.6877C8.22866 10.7434 8.2396 10.7985 8.26089 10.85C8.28218 10.9014 8.3134 10.9481 8.35276 10.9875C8.39212 11.0269 8.43886 11.0581 8.49029 11.0794C8.54173 11.1007 8.59686 11.1116 8.65252 11.1116H9.31781V12.2135C9.31851 13.2506 9.58021 14.2708 10.0788 15.1802C10.5774 16.0896 11.2968 16.8589 12.1708 17.4172V18.7695C12.1718 18.9135 12.1821 19.0573 12.2018 19.1999L9.28972 19.8228H9.28657L8.07176 20.0829C7.32723 20.2445 6.66016 20.6554 6.18081 21.2476C5.70146 21.8397 5.43855 22.5778 5.43555 23.3396V29.4258C5.43555 29.5382 5.4802 29.646 5.55968 29.7255C5.63917 29.805 5.74697 29.8496 5.85938 29.8496H25.1423C25.2547 29.8496 25.3626 29.805 25.442 29.7255C25.5215 29.646 25.5662 29.5382 25.5662 29.4258V23.3396C25.5629 22.5781 25.2999 21.8404 24.8207 21.2485C24.3415 20.6567 23.6747 20.246 22.9304 20.0844V20.0844ZM21.1957 8.81078H19.1942V6.32836C19.1942 6.21595 19.1496 6.10815 19.0701 6.02867C18.9906 5.94918 18.8828 5.90453 18.7704 5.90453C18.658 5.90453 18.5502 5.94918 18.4707 6.02867C18.3912 6.10815 18.3466 6.21595 18.3466 6.32836V8.81078H17.0145V3.40443C18.2033 3.73058 19.2539 4.43421 20.008 5.40932C20.7621 6.38443 21.1789 7.5782 21.1957 8.81078V8.81078ZM14.8348 1.99805H16.1669V8.81078H14.8348V1.99805ZM13.9872 3.40467V8.81078H12.6552V6.32836C12.6552 6.21595 12.6105 6.10815 12.531 6.02867C12.4515 5.94918 12.3437 5.90453 12.2313 5.90453C12.1189 5.90453 12.0111 5.94918 11.9316 6.02867C11.8522 6.10815 11.8075 6.21595 11.8075 6.32836V8.81078H9.80606C9.82275 7.57822 10.2396 6.38447 10.9937 5.40939C11.7478 4.43431 12.7984 3.73074 13.9872 3.40467V3.40467ZM9.07635 9.65844H21.9254V10.2639H9.07635V9.65844ZM10.1662 12.2135V11.1116H20.8363V12.2135C20.8363 13.6285 20.2741 14.9856 19.2736 15.9862C18.273 16.9868 16.9159 17.5489 15.5009 17.5489C14.0858 17.5489 12.7287 16.9868 11.7282 15.9862C10.7276 14.9856 10.1655 13.6285 10.1655 12.2135H10.1662ZM15.5009 18.3941C16.3555 18.3949 17.201 18.2176 17.9833 17.8734V18.7695C17.9833 19.4279 17.7217 20.0593 17.2562 20.5249C16.7907 20.9904 16.1592 21.252 15.5009 21.252C14.8425 21.252 14.2111 20.9904 13.7455 20.5249C13.28 20.0593 13.0184 19.4279 13.0184 18.7695V17.8734C13.8007 18.2176 14.6462 18.3949 15.5009 18.3941ZM6.2832 23.3396C6.2858 22.7718 6.48202 22.2219 6.83945 21.7807C7.19688 21.3395 7.69413 21.0335 8.24904 20.9131L8.95453 20.762V29.002H6.2832V23.3396ZM9.80219 20.5806L12.4178 20.0207C12.6405 20.5669 13.004 21.0443 13.4713 21.4042C13.9386 21.7642 14.493 21.9937 15.078 22.0696V29.002H9.80219V20.5806ZM15.9247 29.002V22.0696C16.5097 21.9938 17.0641 21.7642 17.5314 21.4043C17.9987 21.0443 18.3622 20.5669 18.5849 20.0207L21.2005 20.5806V29.002H15.9247ZM24.7185 29.002H22.0472V20.7622L22.7529 20.9134C23.3077 21.0337 23.8049 21.3398 24.1623 21.7809C24.5197 22.222 24.7159 22.7719 24.7185 23.3396V29.002Z" fill="white"/>
<path d="M23.6895 24.7173C23.6338 24.7173 23.5787 24.7282 23.5272 24.7495C23.4758 24.7708 23.4291 24.802 23.3897 24.8414C23.3503 24.8807 23.3191 24.9274 23.2978 24.9789C23.2765 25.0303 23.2656 25.0854 23.2656 25.1411V26.656C23.2656 26.7684 23.3103 26.8762 23.3898 26.9557C23.4692 27.0352 23.577 27.0798 23.6895 27.0798C23.8019 27.0798 23.9097 27.0352 23.9891 26.9557C24.0686 26.8762 24.1133 26.7684 24.1133 26.656V25.1411C24.1133 25.0287 24.0686 24.9209 23.9891 24.8414C23.9097 24.7619 23.8019 24.7173 23.6895 24.7173Z" fill="white"/>
<path d="M13.5293 23.7537H11.3496C11.2372 23.7537 11.1294 23.7983 11.0499 23.8778C10.9704 23.9573 10.9258 24.0651 10.9258 24.1775C10.9258 24.2899 10.9704 24.3977 11.0499 24.4772C11.1294 24.5567 11.2372 24.6013 11.3496 24.6013H13.5293C13.6417 24.6013 13.7495 24.5567 13.829 24.4772C13.9085 24.3977 13.9531 24.2899 13.9531 24.1775C13.9531 24.0651 13.9085 23.9573 13.829 23.8778C13.7495 23.7983 13.6417 23.7537 13.5293 23.7537V23.7537Z" fill="white"/>
</svg>
