<svg width="31" height="31" viewBox="0 0 31 31" fill="none" xmlns="http://www.w3.org/2000/svg">
<g clip-path="url(#clip0)">
<path d="M15.4984 9.8167C17.2105 9.8167 18.5984 8.42878 18.5984 6.7167C18.5984 5.00462 17.2105 3.6167 15.4984 3.6167C13.7864 3.6167 12.3984 5.00462 12.3984 6.7167C12.4001 8.42807 13.7871 9.81499 15.4984 9.8167ZM15.4984 4.65003C16.6398 4.65003 17.5651 5.57531 17.5651 6.7167C17.5651 7.85809 16.6398 8.78337 15.4984 8.78337C14.357 8.78337 13.4318 7.85809 13.4318 6.7167C13.4318 5.57531 14.357 4.65003 15.4984 4.65003Z" fill="white"/>
<path d="M4.85614 31H6.86288C7.30392 31 7.69634 30.72 7.83989 30.303L11.3734 20.057C11.5367 20.1167 11.709 20.1482 11.8828 20.15H13.4328V29.9667C13.4328 30.5374 13.8955 31 14.4661 31H16.5328C17.1035 31 17.5661 30.5374 17.5661 29.9667V20.15H19.1161C19.29 20.1482 19.4623 20.1167 19.6256 20.057L23.1575 30.303C23.3011 30.72 23.6935 31 24.1345 31H26.1428C26.4769 31 26.7904 30.8386 26.9843 30.5666C27.1782 30.2946 27.2287 29.9456 27.1198 29.6298L22.3711 15.858C22.9068 15.6013 23.2481 15.0606 23.2495 14.4667V7.75C23.2495 6.89396 22.5555 6.2 21.6995 6.2H20.6661V1.55C20.6661 0.693959 19.9722 0 19.1161 0H11.8828C11.0268 0 10.3328 0.693959 10.3328 1.55V6.2H9.29948C8.44344 6.2 7.74948 6.89396 7.74948 7.75V14.4667C7.75085 15.0606 8.09219 15.6013 8.62781 15.858L3.88068 29.6298C3.77186 29.9454 3.82217 30.294 4.01576 30.566C4.20934 30.8379 4.52235 30.9995 4.85614 31V31ZM16.5328 29.9667H14.4661V20.15H16.5328V29.9667ZM17.0495 19.1167H11.8828C11.5975 19.1167 11.3661 18.8853 11.3661 18.6V16.0167H19.6328V18.6C19.6328 18.8853 19.4015 19.1167 19.1161 19.1167H17.0495ZM24.1345 29.9667L20.4708 19.3378C20.5971 19.1123 20.6643 18.8585 20.6661 18.6V16.0167H21.3311L26.1428 29.9667H24.1345ZM11.8828 1.03333H19.1161C19.4015 1.03333 19.6328 1.26465 19.6328 1.55V2.06667H18.5995C18.3141 2.06667 18.0828 2.29799 18.0828 2.58333C18.0828 2.86868 18.3141 3.1 18.5995 3.1H19.6328V10.3333H18.5995C18.3141 10.3333 18.0828 10.5647 18.0828 10.85C18.0828 11.1353 18.3141 11.3667 18.5995 11.3667H19.6328V11.8833C19.6328 12.1687 19.4015 12.4 19.1161 12.4H11.8828C11.5975 12.4 11.3661 12.1687 11.3661 11.8833V11.3667H12.3995C12.6848 11.3667 12.9161 11.1353 12.9161 10.85C12.9161 10.5647 12.6848 10.3333 12.3995 10.3333H11.3661V3.1H12.3995C12.6848 3.1 12.9161 2.86868 12.9161 2.58333C12.9161 2.29799 12.6848 2.06667 12.3995 2.06667H11.3661V1.55C11.3661 1.26465 11.5975 1.03333 11.8828 1.03333ZM8.78281 7.75C8.78281 7.46465 9.01413 7.23333 9.29948 7.23333H10.3328V11.8833C10.3328 12.7394 11.0268 13.4333 11.8828 13.4333H19.1161C19.9722 13.4333 20.6661 12.7394 20.6661 11.8833V7.23333H21.6995C21.9848 7.23333 22.2161 7.46465 22.2161 7.75V14.4667C22.2161 14.752 21.9848 14.9833 21.6995 14.9833H9.29948C9.01413 14.9833 8.78281 14.752 8.78281 14.4667V7.75ZM9.66786 16.0167H10.3328V18.6C10.3347 18.8585 10.4019 19.1123 10.5281 19.3378L6.86443 29.9667H4.85614L9.66786 16.0167Z" fill="white"/>
</g>
<defs>
<clipPath id="clip0">
<rect width="31" height="31" fill="white"/>
</clipPath>
</defs>
</svg>
